%TF.GenerationSoftware,KiCad,Pcbnew,(6.0.4)*%
%TF.CreationDate,2022-06-17T20:48:29+08:00*%
%TF.ProjectId,WS2812_2020_60bit,57533238-3132-45f3-9230-32305f363062,rev?*%
%TF.SameCoordinates,Original*%
%TF.FileFunction,Soldermask,Top*%
%TF.FilePolarity,Negative*%
%FSLAX46Y46*%
G04 Gerber Fmt 4.6, Leading zero omitted, Abs format (unit mm)*
G04 Created by KiCad (PCBNEW (6.0.4)) date 2022-06-17 20:48:29*
%MOMM*%
%LPD*%
G01*
G04 APERTURE LIST*
G04 Aperture macros list*
%AMRoundRect*
0 Rectangle with rounded corners*
0 $1 Rounding radius*
0 $2 $3 $4 $5 $6 $7 $8 $9 X,Y pos of 4 corners*
0 Add a 4 corners polygon primitive as box body*
4,1,4,$2,$3,$4,$5,$6,$7,$8,$9,$2,$3,0*
0 Add four circle primitives for the rounded corners*
1,1,$1+$1,$2,$3*
1,1,$1+$1,$4,$5*
1,1,$1+$1,$6,$7*
1,1,$1+$1,$8,$9*
0 Add four rect primitives between the rounded corners*
20,1,$1+$1,$2,$3,$4,$5,0*
20,1,$1+$1,$4,$5,$6,$7,0*
20,1,$1+$1,$6,$7,$8,$9,0*
20,1,$1+$1,$8,$9,$2,$3,0*%
%AMRotRect*
0 Rectangle, with rotation*
0 The origin of the aperture is its center*
0 $1 length*
0 $2 width*
0 $3 Rotation angle, in degrees counterclockwise*
0 Add horizontal line*
21,1,$1,$2,0,0,$3*%
G04 Aperture macros list end*
%ADD10RoundRect,0.225000X0.314028X-0.120464X0.152762X0.299648X-0.314028X0.120464X-0.152762X-0.299648X0*%
%ADD11RotRect,0.700000X0.700000X45.000000*%
%ADD12RoundRect,0.225000X0.017528X0.335884X-0.332188X0.052689X-0.017528X-0.335884X0.332188X-0.052689X0*%
%ADD13RotRect,0.700000X0.700000X315.000000*%
%ADD14RotRect,0.700000X0.700000X243.000000*%
%ADD15RotRect,0.700000X0.700000X141.000000*%
%ADD16RoundRect,0.225000X-0.332211X0.052541X-0.087124X-0.324861X0.332211X-0.052541X0.087124X0.324861X0*%
%ADD17RoundRect,0.225000X0.332211X-0.052541X0.087124X0.324861X-0.332211X0.052541X-0.087124X-0.324861X0*%
%ADD18RotRect,0.700000X0.700000X3.000000*%
%ADD19RoundRect,0.225000X-0.120604X0.313974X-0.324899X-0.086979X0.120604X-0.313974X0.324899X0.086979X0*%
%ADD20RotRect,0.700000X0.700000X9.000000*%
%ADD21RoundRect,0.225000X0.282038X0.183247X-0.152629X0.299716X-0.282038X-0.183247X0.152629X-0.299716X0*%
%ADD22RoundRect,0.225000X0.335876X0.017678X0.017678X0.335876X-0.335876X-0.017678X-0.017678X-0.335876X0*%
%ADD23RotRect,0.700000X0.700000X261.000000*%
%ADD24RoundRect,0.225000X0.052689X-0.332188X0.335884X0.017528X-0.052689X0.332188X-0.335884X-0.017528X0*%
%ADD25RotRect,0.700000X0.700000X225.000000*%
%ADD26RoundRect,0.225000X-0.282038X-0.183247X0.152629X-0.299716X0.282038X0.183247X-0.152629X0.299716X0*%
%ADD27RotRect,0.700000X0.700000X291.000000*%
%ADD28RotRect,0.700000X0.700000X345.000000*%
%ADD29RotRect,0.700000X0.700000X303.000000*%
%ADD30RoundRect,0.225000X-0.052689X0.332188X-0.335884X-0.017528X0.052689X-0.332188X0.335884X0.017528X0*%
%ADD31RoundRect,0.225000X-0.261433X0.211608X-0.237882X-0.237776X0.261433X-0.211608X0.237882X0.237776X0*%
%ADD32RoundRect,0.225000X0.332188X0.052689X-0.017528X0.335884X-0.332188X-0.052689X0.017528X-0.335884X0*%
%ADD33RotRect,0.700000X0.700000X51.000000*%
%ADD34RotRect,0.700000X0.700000X117.000000*%
%ADD35RotRect,0.700000X0.700000X123.000000*%
%ADD36RoundRect,0.225000X0.237776X0.237882X-0.211608X0.261433X-0.237776X-0.237882X0.211608X-0.261433X0*%
%ADD37RotRect,0.700000X0.700000X189.000000*%
%ADD38RotRect,0.700000X0.700000X57.000000*%
%ADD39RotRect,0.700000X0.700000X327.000000*%
%ADD40RotRect,0.700000X0.700000X285.000000*%
%ADD41RotRect,0.700000X0.700000X357.000000*%
%ADD42RoundRect,0.225000X0.237882X-0.237776X0.261433X0.211608X-0.237882X0.237776X-0.261433X-0.211608X0*%
%ADD43RotRect,0.700000X0.700000X237.000000*%
%ADD44RotRect,0.700000X0.700000X339.000000*%
%ADD45RotRect,0.700000X0.700000X231.000000*%
%ADD46RoundRect,0.225000X-0.237776X-0.237882X0.211608X-0.261433X0.237776X0.237882X-0.211608X0.261433X0*%
%ADD47RotRect,0.700000X0.700000X27.000000*%
%ADD48RotRect,0.700000X0.700000X201.000000*%
%ADD49RotRect,0.700000X0.700000X105.000000*%
%ADD50RoundRect,0.225000X0.324899X-0.086979X0.120604X0.313974X-0.324899X0.086979X-0.120604X-0.313974X0*%
%ADD51RoundRect,0.225000X0.152629X0.299716X-0.282038X0.183247X-0.152629X-0.299716X0.282038X-0.183247X0*%
%ADD52RotRect,0.700000X0.700000X213.000000*%
%ADD53RoundRect,0.225000X0.086979X0.324899X-0.313974X0.120604X-0.086979X-0.324899X0.313974X-0.120604X0*%
%ADD54RoundRect,0.225000X-0.152762X0.299648X-0.314028X-0.120464X0.152762X-0.299648X0.314028X0.120464X0*%
%ADD55RoundRect,0.225000X-0.324899X0.086979X-0.120604X-0.313974X0.324899X-0.086979X0.120604X0.313974X0*%
%ADD56RotRect,0.700000X0.700000X279.000000*%
%ADD57RoundRect,0.225000X0.211608X0.261433X-0.237776X0.237882X-0.211608X-0.261433X0.237776X-0.237882X0*%
%ADD58RotRect,0.700000X0.700000X21.000000*%
%ADD59RotRect,0.700000X0.700000X87.000000*%
%ADD60RoundRect,0.225000X0.335884X-0.017528X0.052689X0.332188X-0.335884X0.017528X-0.052689X-0.332188X0*%
%ADD61RoundRect,0.225000X-0.211608X-0.261433X0.237776X-0.237882X0.211608X0.261433X-0.237776X0.237882X0*%
%ADD62RotRect,0.700000X0.700000X33.000000*%
%ADD63RoundRect,0.225000X-0.261338X-0.211724X0.183121X-0.282120X0.261338X0.211724X-0.183121X0.282120X0*%
%ADD64RotRect,0.700000X0.700000X333.000000*%
%ADD65RoundRect,0.225000X0.152762X-0.299648X0.314028X0.120464X-0.152762X0.299648X-0.314028X-0.120464X0*%
%ADD66RoundRect,0.225000X-0.313974X-0.120604X0.086979X-0.324899X0.313974X0.120604X-0.086979X0.324899X0*%
%ADD67RotRect,0.700000X0.700000X15.000000*%
%ADD68RotRect,0.700000X0.700000X153.000000*%
%ADD69RoundRect,0.225000X-0.017528X-0.335884X0.332188X-0.052689X0.017528X0.335884X-0.332188X0.052689X0*%
%ADD70RotRect,0.700000X0.700000X135.000000*%
%ADD71RotRect,0.700000X0.700000X177.000000*%
%ADD72RotRect,0.700000X0.700000X69.000000*%
%ADD73RotRect,0.700000X0.700000X249.000000*%
%ADD74RoundRect,0.225000X0.183247X-0.282038X0.299716X0.152629X-0.183247X0.282038X-0.299716X-0.152629X0*%
%ADD75RotRect,0.700000X0.700000X147.000000*%
%ADD76RoundRect,0.225000X-0.017678X0.335876X-0.335876X0.017678X0.017678X-0.335876X0.335876X-0.017678X0*%
%ADD77RoundRect,0.225000X-0.211724X0.261338X-0.282120X-0.183121X0.211724X-0.261338X0.282120X0.183121X0*%
%ADD78RoundRect,0.225000X0.261338X0.211724X-0.183121X0.282120X-0.261338X-0.211724X0.183121X-0.282120X0*%
%ADD79RoundRect,0.225000X-0.332188X-0.052689X0.017528X-0.335884X0.332188X0.052689X-0.017528X0.335884X0*%
%ADD80RoundRect,0.225000X-0.183121X-0.282120X0.261338X-0.211724X0.183121X0.282120X-0.261338X0.211724X0*%
%ADD81RoundRect,0.225000X-0.282120X0.183121X-0.211724X-0.261338X0.282120X-0.183121X0.211724X0.261338X0*%
%ADD82RotRect,0.700000X0.700000X93.000000*%
%ADD83RotRect,0.700000X0.700000X195.000000*%
%ADD84RoundRect,0.225000X-0.152629X-0.299716X0.282038X-0.183247X0.152629X0.299716X-0.282038X0.183247X0*%
%ADD85RotRect,0.700000X0.700000X159.000000*%
%ADD86RotRect,0.700000X0.700000X39.000000*%
%ADD87RotRect,0.700000X0.700000X273.000000*%
%ADD88RotRect,0.700000X0.700000X111.000000*%
%ADD89RotRect,0.700000X0.700000X171.000000*%
%ADD90RoundRect,0.225000X-0.335884X0.017528X-0.052689X-0.332188X0.335884X-0.017528X0.052689X0.332188X0*%
%ADD91RotRect,0.700000X0.700000X129.000000*%
%ADD92RoundRect,0.225000X0.087124X-0.324861X0.332211X0.052541X-0.087124X0.324861X-0.332211X-0.052541X0*%
%ADD93RoundRect,0.225000X0.052541X0.332211X-0.324861X0.087124X-0.052541X-0.332211X0.324861X-0.087124X0*%
%ADD94RotRect,0.700000X0.700000X255.000000*%
%ADD95RotRect,0.700000X0.700000X99.000000*%
%ADD96RotRect,0.700000X0.700000X219.000000*%
%ADD97RoundRect,0.225000X0.324861X0.087124X-0.052541X0.332211X-0.324861X-0.087124X0.052541X-0.332211X0*%
%ADD98RoundRect,0.225000X-0.120464X-0.314028X0.299648X-0.152762X0.120464X0.314028X-0.299648X0.152762X0*%
%ADD99RoundRect,0.225000X-0.237882X0.237776X-0.261433X-0.211608X0.237882X-0.237776X0.261433X0.211608X0*%
%ADD100RoundRect,0.225000X-0.314028X0.120464X-0.152762X-0.299648X0.314028X-0.120464X0.152762X0.299648X0*%
%ADD101RoundRect,0.225000X0.261433X-0.211608X0.237882X0.237776X-0.261433X0.211608X-0.237882X-0.237776X0*%
%ADD102RoundRect,0.225000X0.120464X0.314028X-0.299648X0.152762X-0.120464X-0.314028X0.299648X-0.152762X0*%
%ADD103RotRect,0.700000X0.700000X309.000000*%
%ADD104RoundRect,0.225000X0.313974X0.120604X-0.086979X0.324899X-0.313974X-0.120604X0.086979X-0.324899X0*%
%ADD105RoundRect,0.225000X-0.324861X-0.087124X0.052541X-0.332211X0.324861X0.087124X-0.052541X0.332211X0*%
%ADD106RoundRect,0.225000X0.299648X0.152762X-0.120464X0.314028X-0.299648X-0.152762X0.120464X-0.314028X0*%
%ADD107RotRect,0.700000X0.700000X207.000000*%
%ADD108RotRect,0.700000X0.700000X183.000000*%
%ADD109RotRect,0.700000X0.700000X81.000000*%
%ADD110RoundRect,0.225000X0.120604X-0.313974X0.324899X0.086979X-0.120604X0.313974X-0.324899X-0.086979X0*%
%ADD111RoundRect,0.225000X-0.299648X-0.152762X0.120464X-0.314028X0.299648X0.152762X-0.120464X0.314028X0*%
%ADD112RotRect,0.700000X0.700000X321.000000*%
%ADD113RotRect,0.700000X0.700000X165.000000*%
%ADD114RotRect,0.700000X0.700000X267.000000*%
%ADD115RoundRect,0.225000X0.282120X-0.183121X0.211724X0.261338X-0.282120X0.183121X-0.211724X-0.261338X0*%
%ADD116RotRect,0.700000X0.700000X63.000000*%
%ADD117RoundRect,0.225000X0.299716X-0.152629X0.183247X0.282038X-0.299716X0.152629X-0.183247X-0.282038X0*%
%ADD118RoundRect,0.225000X-0.335876X-0.017678X-0.017678X-0.335876X0.335876X0.017678X0.017678X0.335876X0*%
%ADD119RotRect,0.700000X0.700000X297.000000*%
%ADD120RoundRect,0.225000X0.017678X-0.335876X0.335876X-0.017678X-0.017678X0.335876X-0.335876X0.017678X0*%
%ADD121RotRect,0.700000X0.700000X75.000000*%
%ADD122RoundRect,0.225000X-0.299716X0.152629X-0.183247X-0.282038X0.299716X-0.152629X0.183247X0.282038X0*%
%ADD123RoundRect,0.225000X-0.086979X-0.324899X0.313974X-0.120604X0.086979X0.324899X-0.313974X0.120604X0*%
%ADD124RoundRect,0.225000X0.183121X0.282120X-0.261338X0.211724X-0.183121X-0.282120X0.261338X-0.211724X0*%
%ADD125RoundRect,0.225000X0.211724X-0.261338X0.282120X0.183121X-0.211724X0.261338X-0.282120X-0.183121X0*%
%ADD126RoundRect,0.225000X-0.052541X-0.332211X0.324861X-0.087124X0.052541X0.332211X-0.324861X0.087124X0*%
%ADD127RoundRect,0.225000X-0.183247X0.282038X-0.299716X-0.152629X0.183247X-0.282038X0.299716X0.152629X0*%
%ADD128RotRect,0.700000X0.700000X351.000000*%
%ADD129RoundRect,0.225000X-0.087124X0.324861X-0.332211X-0.052541X0.087124X-0.324861X0.332211X0.052541X0*%
G04 APERTURE END LIST*
D10*
%TO.C,REF\u002A\u002A100*%
X199024925Y-87536283D03*
X198469455Y-86089233D03*
%TD*%
D11*
%TO.C,LED\u002A\u002A74*%
X255291294Y-57273111D03*
X256069111Y-56495294D03*
X254775106Y-55201289D03*
X253997289Y-55979106D03*
%TD*%
D12*
%TO.C,REF\u002A\u002A118*%
X250901442Y-104154213D03*
X249696866Y-105129659D03*
%TD*%
D13*
%TO.C,LED\u002A\u002A8*%
X250726889Y-101291294D03*
X251504706Y-102069111D03*
X252798711Y-100775106D03*
X252020894Y-99997289D03*
%TD*%
D14*
%TO.C,LED\u002A\u002A107*%
X213993551Y-103267808D03*
X213494161Y-104247915D03*
X215124703Y-105078718D03*
X215624093Y-104098611D03*
%TD*%
D15*
%TO.C,LED\u002A\u002A90*%
X208842045Y-54903798D03*
X207987185Y-54211545D03*
X206835529Y-55633722D03*
X207690389Y-56325975D03*
%TD*%
D16*
%TO.C,REF\u002A\u002A72*%
X260085727Y-60045968D03*
X260929917Y-61345908D03*
%TD*%
D17*
%TO.C,REF\u002A\u002A102*%
X201914273Y-93954032D03*
X201070083Y-92654092D03*
%TD*%
D18*
%TO.C,LED\u002A\u002A67*%
X262251814Y-78594113D03*
X263350307Y-78536543D03*
X263254532Y-76709051D03*
X262156039Y-76766621D03*
%TD*%
D19*
%TO.C,REF\u002A\u002A62*%
X260225486Y-93711962D03*
X259521800Y-95093022D03*
%TD*%
D20*
%TO.C,LED\u002A\u002A68*%
X262247244Y-75318676D03*
X263333701Y-75146598D03*
X263047426Y-73339128D03*
X261960969Y-73511206D03*
%TD*%
D21*
%TO.C,REF\u002A\u002A109*%
X220729555Y-109061451D03*
X219232369Y-108660281D03*
%TD*%
D22*
%TO.C,REF\u002A\u002A104*%
X206074808Y-99630808D03*
X204978792Y-98534792D03*
%TD*%
D23*
%TO.C,LED\u002A\u002A110*%
X222943104Y-107237453D03*
X222771026Y-108323910D03*
X224578496Y-108610185D03*
X224750574Y-107523728D03*
%TD*%
D24*
%TO.C,REF\u002A\u002A90*%
X205887774Y-54576914D03*
X206863220Y-53372338D03*
%TD*%
D25*
%TO.C,LED\u002A\u002A104*%
X206708706Y-96726889D03*
X205930889Y-97504706D03*
X207224894Y-98798711D03*
X208002711Y-98020894D03*
%TD*%
D26*
%TO.C,REF\u002A\u002A79*%
X241270445Y-44938549D03*
X242767631Y-45339719D03*
%TD*%
D27*
%TO.C,LED\u002A\u002A115*%
X239141251Y-107214849D03*
X239535455Y-108241788D03*
X241243907Y-107585975D03*
X240849703Y-106559036D03*
%TD*%
D28*
%TO.C,LED\u002A\u002A64*%
X260229633Y-88173434D03*
X261292152Y-88458135D03*
X261765791Y-86690490D03*
X260703272Y-86405789D03*
%TD*%
D29*
%TO.C,LED\u002A\u002A117*%
X245245365Y-104861922D03*
X245844468Y-105784460D03*
X247379235Y-104787770D03*
X246780132Y-103865232D03*
%TD*%
D30*
%TO.C,REF\u002A\u002A60*%
X256112226Y-99423086D03*
X255136780Y-100627662D03*
%TD*%
D31*
%TO.C,REF\u002A\u002A67*%
X264665994Y-76860241D03*
X264747114Y-78408117D03*
%TD*%
D32*
%TO.C,REF\u002A\u002A105*%
X208576914Y-102112226D03*
X207372338Y-101136780D03*
%TD*%
D33*
%TO.C,LED\u002A\u002A75*%
X253096202Y-54842045D03*
X253788455Y-53987185D03*
X252366278Y-52835529D03*
X251674025Y-53690389D03*
%TD*%
D34*
%TO.C,LED\u002A\u002A86*%
X219745037Y-47801662D03*
X219245647Y-46821555D03*
X217615105Y-47652358D03*
X218114495Y-48632465D03*
%TD*%
D35*
%TO.C,LED\u002A\u002A87*%
X216754635Y-49138078D03*
X216155532Y-48215540D03*
X214620765Y-49212230D03*
X215219868Y-50134768D03*
%TD*%
D36*
%TO.C,REF\u002A\u002A111*%
X227619939Y-110496176D03*
X226072063Y-110415056D03*
%TD*%
D37*
%TO.C,LED\u002A\u002A98*%
X199752756Y-78681324D03*
X198666299Y-78853402D03*
X198952574Y-80660872D03*
X200039031Y-80488794D03*
%TD*%
D38*
%TO.C,LED\u002A\u002A76*%
X250659020Y-52653748D03*
X251258123Y-51731210D03*
X249723356Y-50734520D03*
X249124253Y-51657058D03*
%TD*%
D39*
%TO.C,LED\u002A\u002A61*%
X255346252Y-96659020D03*
X256268790Y-97258123D03*
X257265480Y-95723356D03*
X256342942Y-95124253D03*
%TD*%
D40*
%TO.C,LED\u002A\u002A114*%
X235938339Y-107900322D03*
X236223040Y-108962841D03*
X237990685Y-108489202D03*
X237705984Y-107426683D03*
%TD*%
D41*
%TO.C,LED\u002A\u002A66*%
X261913983Y-81852084D03*
X263012476Y-81909654D03*
X263108251Y-80082162D03*
X262009758Y-80024592D03*
%TD*%
D42*
%TO.C,REF\u002A\u002A96*%
X197503824Y-73619939D03*
X197584944Y-72072063D03*
%TD*%
D43*
%TO.C,LED\u002A\u002A106*%
X211340980Y-101346252D03*
X210741877Y-102268790D03*
X212276644Y-103265480D03*
X212875747Y-102342942D03*
%TD*%
D44*
%TO.C,LED\u002A\u002A63*%
X258901569Y-91167553D03*
X259928508Y-91561757D03*
X260584321Y-89853305D03*
X259557382Y-89459101D03*
%TD*%
D45*
%TO.C,LED\u002A\u002A105*%
X208903798Y-99157955D03*
X208211545Y-100012815D03*
X209633722Y-101164471D03*
X210325975Y-100309611D03*
%TD*%
D46*
%TO.C,REF\u002A\u002A81*%
X234380061Y-43503824D03*
X235927937Y-43584944D03*
%TD*%
D47*
%TO.C,LED\u002A\u002A71*%
X260198338Y-65745037D03*
X261178445Y-65245647D03*
X260347642Y-63615105D03*
X259367535Y-64114495D03*
%TD*%
D48*
%TO.C,LED\u002A\u002A100*%
X200785151Y-85141251D03*
X199758212Y-85535455D03*
X200414025Y-87243907D03*
X201440964Y-86849703D03*
%TD*%
D49*
%TO.C,LED\u002A\u002A84*%
X226061661Y-46099678D03*
X225776960Y-45037159D03*
X224009315Y-45510798D03*
X224294016Y-46573317D03*
%TD*%
D50*
%TO.C,REF\u002A\u002A101*%
X200301430Y-90820869D03*
X199597744Y-89439809D03*
%TD*%
D51*
%TO.C,REF\u002A\u002A114*%
X238136259Y-109901253D03*
X236639073Y-110302423D03*
%TD*%
D52*
%TO.C,LED\u002A\u002A102*%
X203138078Y-91245365D03*
X202215540Y-91844468D03*
X203212230Y-93379235D03*
X204134768Y-92780132D03*
%TD*%
D53*
%TO.C,REF\u002A\u002A116*%
X244820869Y-107698570D03*
X243439809Y-108402256D03*
%TD*%
D54*
%TO.C,REF\u002A\u002A63*%
X261812260Y-90565517D03*
X261256790Y-92012567D03*
%TD*%
D55*
%TO.C,REF\u002A\u002A71*%
X261698570Y-63179131D03*
X262402256Y-64560191D03*
%TD*%
D56*
%TO.C,LED\u002A\u002A113*%
X232681324Y-108247244D03*
X232853402Y-109333701D03*
X234660872Y-109047426D03*
X234488794Y-107960969D03*
%TD*%
D57*
%TO.C,REF\u002A\u002A112*%
X231139759Y-110665994D03*
X229591883Y-110747114D03*
%TD*%
D58*
%TO.C,LED\u002A\u002A70*%
X261214849Y-68858749D03*
X262241788Y-68464545D03*
X261585975Y-66756093D03*
X260559036Y-67150297D03*
%TD*%
D59*
%TO.C,LED\u002A\u002A81*%
X235852084Y-46086017D03*
X235909654Y-44987524D03*
X234082162Y-44891749D03*
X234024592Y-45990242D03*
%TD*%
D60*
%TO.C,REF\u002A\u002A103*%
X203845787Y-96901442D03*
X202870341Y-95696866D03*
%TD*%
D61*
%TO.C,REF\u002A\u002A82*%
X230860241Y-43334006D03*
X232408117Y-43252886D03*
%TD*%
D62*
%TO.C,LED\u002A\u002A72*%
X258861922Y-62754635D03*
X259784460Y-62155532D03*
X258787770Y-60620765D03*
X257865232Y-61219868D03*
%TD*%
D63*
%TO.C,REF\u002A\u002A80*%
X237862850Y-44040631D03*
X239393766Y-44283105D03*
%TD*%
D64*
%TO.C,LED\u002A\u002A62*%
X257267808Y-94006449D03*
X258247915Y-94505839D03*
X259078718Y-92875297D03*
X258098611Y-92375907D03*
%TD*%
D65*
%TO.C,REF\u002A\u002A93*%
X200187740Y-63434483D03*
X200743210Y-61987433D03*
%TD*%
D66*
%TO.C,REF\u002A\u002A77*%
X247711962Y-47774514D03*
X249093022Y-48478200D03*
%TD*%
D67*
%TO.C,LED\u002A\u002A69*%
X261900322Y-72061661D03*
X262962841Y-71776960D03*
X262489202Y-70009315D03*
X261426683Y-70294016D03*
%TD*%
D68*
%TO.C,LED\u002A\u002A92*%
X204732192Y-59993551D03*
X203752085Y-59494161D03*
X202921282Y-61124703D03*
X203901389Y-61624093D03*
%TD*%
D69*
%TO.C,REF\u002A\u002A88*%
X211098558Y-49845787D03*
X212303134Y-48870341D03*
%TD*%
D70*
%TO.C,LED\u002A\u002A89*%
X211273111Y-52708706D03*
X210495294Y-51930889D03*
X209201289Y-53224894D03*
X209979106Y-54002711D03*
%TD*%
D71*
%TO.C,LED\u002A\u002A96*%
X200086017Y-72147916D03*
X198987524Y-72090346D03*
X198891749Y-73917838D03*
X199990242Y-73975408D03*
%TD*%
D72*
%TO.C,LED\u002A\u002A78*%
X245167553Y-49098431D03*
X245561757Y-48071492D03*
X243853305Y-47415679D03*
X243459101Y-48442618D03*
%TD*%
D73*
%TO.C,LED\u002A\u002A108*%
X216832447Y-104901569D03*
X216438243Y-105928508D03*
X218146695Y-106584321D03*
X218540899Y-105557382D03*
%TD*%
D74*
%TO.C,REF\u002A\u002A94*%
X198938549Y-66729555D03*
X199339719Y-65232369D03*
%TD*%
D75*
%TO.C,LED\u002A\u002A91*%
X206653748Y-57340980D03*
X205731210Y-56741877D03*
X204734520Y-58276644D03*
X205657058Y-58875747D03*
%TD*%
D76*
%TO.C,REF\u002A\u002A8*%
X253630808Y-101925192D03*
X252534792Y-103021208D03*
%TD*%
D77*
%TO.C,REF\u002A\u002A65*%
X263959369Y-83862850D03*
X263716895Y-85393766D03*
%TD*%
D78*
%TO.C,REF\u002A\u002A110*%
X224137150Y-109959369D03*
X222606234Y-109716895D03*
%TD*%
D79*
%TO.C,REF\u002A\u002A75*%
X253423086Y-51887774D03*
X254627662Y-52863220D03*
%TD*%
D80*
%TO.C,REF\u002A\u002A83*%
X227341953Y-43533041D03*
X228872869Y-43290567D03*
%TD*%
D81*
%TO.C,REF\u002A\u002A68*%
X264466959Y-73341953D03*
X264709433Y-74872869D03*
%TD*%
D82*
%TO.C,LED\u002A\u002A82*%
X232594113Y-45748186D03*
X232536543Y-44649693D03*
X230709051Y-44745468D03*
X230766621Y-45843961D03*
%TD*%
D83*
%TO.C,LED\u002A\u002A99*%
X200099678Y-81938339D03*
X199037159Y-82223040D03*
X199510798Y-83990685D03*
X200573317Y-83705984D03*
%TD*%
D84*
%TO.C,REF\u002A\u002A84*%
X223863741Y-44098747D03*
X225360927Y-43697577D03*
%TD*%
D85*
%TO.C,LED\u002A\u002A93*%
X203098431Y-62832447D03*
X202071492Y-62438243D03*
X201415679Y-64146695D03*
X202442618Y-64540899D03*
%TD*%
D86*
%TO.C,LED\u002A\u002A73*%
X257220245Y-59920309D03*
X258075105Y-59228056D03*
X256923449Y-57805879D03*
X256068589Y-58498132D03*
%TD*%
D87*
%TO.C,LED\u002A\u002A112*%
X229405887Y-108251814D03*
X229463457Y-109350307D03*
X231290949Y-109254532D03*
X231233379Y-108156039D03*
%TD*%
D88*
%TO.C,LED\u002A\u002A85*%
X222858749Y-46785151D03*
X222464545Y-45758212D03*
X220756093Y-46414025D03*
X221150297Y-47440964D03*
%TD*%
D89*
%TO.C,LED\u002A\u002A95*%
X200762547Y-68943104D03*
X199676090Y-68771026D03*
X199389815Y-70578496D03*
X200476272Y-70750574D03*
%TD*%
D90*
%TO.C,REF\u002A\u002A73*%
X258154213Y-57098558D03*
X259129659Y-58303134D03*
%TD*%
D91*
%TO.C,LED\u002A\u002A88*%
X213920309Y-50779755D03*
X213228056Y-49924895D03*
X211805879Y-51076551D03*
X212498132Y-51931411D03*
%TD*%
D92*
%TO.C,REF\u002A\u002A91*%
X203681491Y-57324693D03*
X204525681Y-56024753D03*
%TD*%
D93*
%TO.C,REF\u002A\u002A117*%
X247954032Y-106085727D03*
X246654092Y-106929917D03*
%TD*%
D94*
%TO.C,LED\u002A\u002A109*%
X219826566Y-106229633D03*
X219541865Y-107292152D03*
X221309510Y-107765791D03*
X221594211Y-106703272D03*
%TD*%
D95*
%TO.C,LED\u002A\u002A83*%
X229318676Y-45752756D03*
X229146598Y-44666299D03*
X227339128Y-44952574D03*
X227511206Y-46039031D03*
%TD*%
D96*
%TO.C,LED\u002A\u002A103*%
X204779755Y-94079691D03*
X203924895Y-94771944D03*
X205076551Y-96194121D03*
X205931411Y-95501868D03*
%TD*%
D97*
%TO.C,REF\u002A\u002A106*%
X211324693Y-104318509D03*
X210024753Y-103474319D03*
%TD*%
D98*
%TO.C,REF\u002A\u002A85*%
X220463717Y-45024925D03*
X221910767Y-44469455D03*
%TD*%
D99*
%TO.C,REF\u002A\u002A66*%
X264496176Y-80380061D03*
X264415056Y-81927937D03*
%TD*%
D100*
%TO.C,REF\u002A\u002A70*%
X262975075Y-66463717D03*
X263530545Y-67910767D03*
%TD*%
D101*
%TO.C,REF\u002A\u002A97*%
X197334006Y-77139759D03*
X197252886Y-75591883D03*
%TD*%
D102*
%TO.C,REF\u002A\u002A115*%
X241536283Y-108975075D03*
X240089233Y-109530545D03*
%TD*%
D103*
%TO.C,LED\u002A\u002A118*%
X248079691Y-103220245D03*
X248771944Y-104075105D03*
X250194121Y-102923449D03*
X249501868Y-102068589D03*
%TD*%
D104*
%TO.C,REF\u002A\u002A107*%
X214288038Y-106225486D03*
X212906978Y-105521800D03*
%TD*%
D105*
%TO.C,REF\u002A\u002A76*%
X250675307Y-49681491D03*
X251975247Y-50525681D03*
%TD*%
D106*
%TO.C,REF\u002A\u002A108*%
X217434483Y-107812260D03*
X215987433Y-107256790D03*
%TD*%
D107*
%TO.C,LED\u002A\u002A101*%
X201801662Y-88254963D03*
X200821555Y-88754353D03*
X201652358Y-90384895D03*
X202632465Y-89885505D03*
%TD*%
D108*
%TO.C,LED\u002A\u002A97*%
X199748186Y-75405887D03*
X198649693Y-75463457D03*
X198745468Y-77290949D03*
X199843961Y-77233379D03*
%TD*%
D109*
%TO.C,LED\u002A\u002A80*%
X239056896Y-46762547D03*
X239228974Y-45676090D03*
X237421504Y-45389815D03*
X237249426Y-46476272D03*
%TD*%
D110*
%TO.C,REF\u002A\u002A92*%
X201774514Y-60288038D03*
X202478200Y-58906978D03*
%TD*%
D111*
%TO.C,REF\u002A\u002A78*%
X244565517Y-46187740D03*
X246012567Y-46743210D03*
%TD*%
D112*
%TO.C,LED\u002A\u002A60*%
X253157955Y-99096202D03*
X254012815Y-99788455D03*
X255164471Y-98366278D03*
X254309611Y-97674025D03*
%TD*%
D113*
%TO.C,LED\u002A\u002A94*%
X201770367Y-65826566D03*
X200707848Y-65541865D03*
X200234209Y-67309510D03*
X201296728Y-67594211D03*
%TD*%
D114*
%TO.C,LED\u002A\u002A111*%
X226147916Y-107913983D03*
X226090346Y-109012476D03*
X227917838Y-109108251D03*
X227975408Y-108009758D03*
%TD*%
D115*
%TO.C,REF\u002A\u002A98*%
X197533041Y-80658047D03*
X197290567Y-79127131D03*
%TD*%
D116*
%TO.C,LED\u002A\u002A77*%
X248006449Y-50732192D03*
X248505839Y-49752085D03*
X246875297Y-48921282D03*
X246375907Y-49901389D03*
%TD*%
D117*
%TO.C,REF\u002A\u002A99*%
X198098747Y-84136259D03*
X197697577Y-82639073D03*
%TD*%
D118*
%TO.C,REF\u002A\u002A74*%
X255925192Y-54369192D03*
X257021208Y-55465208D03*
%TD*%
D119*
%TO.C,LED\u002A\u002A116*%
X242254963Y-106198338D03*
X242754353Y-107178445D03*
X244384895Y-106347642D03*
X243885505Y-105367535D03*
%TD*%
D120*
%TO.C,REF\u002A\u002A89*%
X208369192Y-52074808D03*
X209465208Y-50978792D03*
%TD*%
D121*
%TO.C,LED\u002A\u002A79*%
X242173434Y-47770367D03*
X242458135Y-46707848D03*
X240690490Y-46234209D03*
X240405789Y-47296728D03*
%TD*%
D122*
%TO.C,REF\u002A\u002A69*%
X263901253Y-69863741D03*
X264302423Y-71360927D03*
%TD*%
D123*
%TO.C,REF\u002A\u002A86*%
X217179131Y-46301430D03*
X218560191Y-45597744D03*
%TD*%
D124*
%TO.C,REF\u002A\u002A113*%
X234658047Y-110466959D03*
X233127131Y-110709433D03*
%TD*%
D125*
%TO.C,REF\u002A\u002A95*%
X198040631Y-70137150D03*
X198283105Y-68606234D03*
%TD*%
D126*
%TO.C,REF\u002A\u002A87*%
X214045968Y-47914273D03*
X215345908Y-47070083D03*
%TD*%
D127*
%TO.C,REF\u002A\u002A64*%
X263061451Y-87270445D03*
X262660281Y-88767631D03*
%TD*%
D128*
%TO.C,LED\u002A\u002A65*%
X261237453Y-85056896D03*
X262323910Y-85228974D03*
X262610185Y-83421504D03*
X261523728Y-83249426D03*
%TD*%
D129*
%TO.C,REF\u002A\u002A61*%
X258318509Y-96675307D03*
X257474319Y-97975247D03*
%TD*%
M02*
