%TF.GenerationSoftware,KiCad,Pcbnew,(6.0.4)*%
%TF.CreationDate,2022-06-17T20:48:29+08:00*%
%TF.ProjectId,WS2812_2020_60bit,57533238-3132-45f3-9230-32305f363062,rev?*%
%TF.SameCoordinates,Original*%
%TF.FileFunction,Legend,Top*%
%TF.FilePolarity,Positive*%
%FSLAX46Y46*%
G04 Gerber Fmt 4.6, Leading zero omitted, Abs format (unit mm)*
G04 Created by KiCad (PCBNEW (6.0.4)) date 2022-06-17 20:48:29*
%MOMM*%
%LPD*%
G01*
G04 APERTURE LIST*
%ADD10C,0.120000*%
%ADD11C,0.100000*%
%ADD12C,0.200000*%
G04 APERTURE END LIST*
D10*
%TO.C,REF\u002A\u002A100*%
X199273695Y-86761233D02*
X199172937Y-86498748D01*
X198321443Y-87126768D02*
X198220685Y-86864283D01*
D11*
%TO.C,LED\u002A\u002A74*%
X255598885Y-55388672D02*
X255881728Y-55671515D01*
D12*
X255952439Y-57722124D02*
X255952439Y-57722124D01*
X255811017Y-57863546D02*
X255811017Y-57863546D01*
D11*
X254184672Y-56802885D02*
X254467515Y-57085728D01*
D12*
X255952439Y-57722124D02*
G75*
G03*
X255811017Y-57863546I-70711J-70711D01*
G01*
X255811017Y-57863546D02*
G75*
G03*
X255952439Y-57722124I70711J70711D01*
G01*
D10*
%TO.C,REF\u002A\u002A118*%
X250087452Y-104157122D02*
X249868949Y-104334061D01*
X250729359Y-104949811D02*
X250510856Y-105126750D01*
D11*
%TO.C,LED\u002A\u002A8*%
X251197115Y-100184672D02*
X250914272Y-100467515D01*
D12*
X250277876Y-101952439D02*
X250277876Y-101952439D01*
D11*
X252611328Y-101598885D02*
X252328485Y-101881728D01*
D12*
X250136454Y-101811017D02*
X250136454Y-101811017D01*
X250277876Y-101952439D02*
G75*
G03*
X250136454Y-101811017I-70711J70711D01*
G01*
X250136454Y-101811017D02*
G75*
G03*
X250277876Y-101952439I70711J-70711D01*
G01*
D11*
%TO.C,LED\u002A\u002A107*%
X215191319Y-103373055D02*
X214834916Y-103191458D01*
X214283338Y-105155068D02*
X213926935Y-104973471D01*
D12*
X213316810Y-102866875D02*
X213316810Y-102866875D01*
X213226012Y-103045077D02*
X213226012Y-103045077D01*
X213226012Y-103045077D02*
G75*
G03*
X213316810Y-102866875I45399J89101D01*
G01*
X213316810Y-102866875D02*
G75*
G03*
X213226012Y-103045077I-45399J-89101D01*
G01*
D11*
%TO.C,LED\u002A\u002A90*%
X206935777Y-54794869D02*
X207187505Y-54484010D01*
D12*
X209374919Y-54325204D02*
X209374919Y-54325204D01*
D11*
X208490069Y-56053510D02*
X208741797Y-55742651D01*
D12*
X209219490Y-54199340D02*
X209219490Y-54199340D01*
X209374919Y-54325204D02*
G75*
G03*
X209219490Y-54199340I-77714J62932D01*
G01*
X209219490Y-54199340D02*
G75*
G03*
X209374919Y-54325204I77715J-62932D01*
G01*
D10*
%TO.C,REF\u002A\u002A72*%
X260003535Y-60855804D02*
X260156665Y-61091604D01*
X260858979Y-60300272D02*
X261012109Y-60536072D01*
%TO.C,REF\u002A\u002A102*%
X201141021Y-93699728D02*
X200987891Y-93463928D01*
X201996465Y-93144196D02*
X201843335Y-92908396D01*
D11*
%TO.C,LED\u002A\u002A67*%
X263741335Y-77399520D02*
X263762270Y-77798972D01*
D12*
X262242966Y-79380654D02*
X262242966Y-79380654D01*
X262442692Y-79370187D02*
X262442692Y-79370187D01*
D11*
X261744076Y-77504192D02*
X261765011Y-77903644D01*
D12*
X262442692Y-79370187D02*
G75*
G03*
X262242966Y-79380654I-99863J-5233D01*
G01*
X262242966Y-79380654D02*
G75*
G03*
X262442692Y-79370187I99863J5234D01*
G01*
D10*
%TO.C,REF\u002A\u002A62*%
X260391878Y-94508769D02*
X260264234Y-94759285D01*
X259483052Y-94045699D02*
X259355408Y-94296215D01*
D12*
%TO.C,LED\u002A\u002A68*%
X262320661Y-76101833D02*
X262320661Y-76101833D01*
D11*
X263603736Y-73974930D02*
X263666310Y-74370005D01*
X261628360Y-74287799D02*
X261690934Y-74682874D01*
D12*
X262518198Y-76070546D02*
X262518198Y-76070546D01*
X262320660Y-76101833D02*
G75*
G03*
X262518198Y-76070546I98769J15644D01*
G01*
X262518197Y-76070546D02*
G75*
G03*
X262320661Y-76101833I-98768J-15643D01*
G01*
D10*
%TO.C,REF\u002A\u002A109*%
X219984754Y-109389873D02*
X219713174Y-109317103D01*
X220248750Y-108404629D02*
X219977170Y-108331859D01*
%TO.C,REF\u002A\u002A104*%
X205265581Y-99542830D02*
X205066770Y-99344019D01*
X205986830Y-98821581D02*
X205788019Y-98622770D01*
D11*
%TO.C,LED\u002A\u002A110*%
X223801903Y-108942794D02*
X223406828Y-108880220D01*
D12*
X222144304Y-107262805D02*
X222144304Y-107262805D01*
X222175591Y-107065267D02*
X222175591Y-107065267D01*
D11*
X224114772Y-106967418D02*
X223719697Y-106904844D01*
D12*
X222144304Y-107262805D02*
G75*
G03*
X222175591Y-107065267I15643J98769D01*
G01*
X222175591Y-107065267D02*
G75*
G03*
X222144304Y-107262805I-15644J-98769D01*
G01*
D10*
%TO.C,REF\u002A\u002A90*%
X205890683Y-53762924D02*
X206067622Y-53544421D01*
X206683372Y-54404831D02*
X206860311Y-54186328D01*
D11*
%TO.C,LED\u002A\u002A104*%
X206401115Y-98611328D02*
X206118272Y-98328485D01*
D12*
X206188983Y-96136454D02*
X206188983Y-96136454D01*
X206047561Y-96277876D02*
X206047561Y-96277876D01*
D11*
X207815328Y-97197115D02*
X207532485Y-96914272D01*
D12*
X206188983Y-96136454D02*
G75*
G03*
X206047561Y-96277876I-70711J-70711D01*
G01*
X206047561Y-96277876D02*
G75*
G03*
X206188983Y-96136454I70711J70711D01*
G01*
D10*
%TO.C,REF\u002A\u002A79*%
X242015246Y-44610127D02*
X242286826Y-44682897D01*
X241751250Y-45595371D02*
X242022830Y-45668141D01*
D11*
%TO.C,LED\u002A\u002A115*%
X240020927Y-106395158D02*
X239647495Y-106538505D01*
D12*
X238462145Y-107636205D02*
X238462145Y-107636205D01*
X238390472Y-107449489D02*
X238390472Y-107449489D01*
D11*
X240737663Y-108262319D02*
X240364231Y-108405666D01*
D12*
X238462145Y-107636205D02*
G75*
G03*
X238390472Y-107449489I-35837J93358D01*
G01*
X238390472Y-107449489D02*
G75*
G03*
X238462145Y-107636205I35836J-93358D01*
G01*
%TO.C,LED\u002A\u002A64*%
X259978164Y-88918744D02*
X259978164Y-88918744D01*
D11*
X262015402Y-87497596D02*
X261911874Y-87883966D01*
X260083550Y-86979958D02*
X259980022Y-87366328D01*
D12*
X260171349Y-88970508D02*
X260171349Y-88970508D01*
X260171350Y-88970508D02*
G75*
G03*
X259978164Y-88918744I-96593J25882D01*
G01*
X259978165Y-88918744D02*
G75*
G03*
X260171349Y-88970508I96592J-25882D01*
G01*
D11*
%TO.C,LED\u002A\u002A117*%
X247024673Y-105554589D02*
X246689205Y-105772444D01*
X245935395Y-103877248D02*
X245599927Y-104095103D01*
D12*
X244668704Y-105415264D02*
X244668704Y-105415264D01*
X244559777Y-105247530D02*
X244559777Y-105247530D01*
X244668704Y-105415264D02*
G75*
G03*
X244559777Y-105247530I-54463J83867D01*
G01*
X244559778Y-105247531D02*
G75*
G03*
X244668704Y-105415264I54463J-83866D01*
G01*
D10*
%TO.C,REF\u002A\u002A60*%
X255316628Y-99595169D02*
X255139689Y-99813672D01*
X256109317Y-100237076D02*
X255932378Y-100455579D01*
%TO.C,REF\u002A\u002A67*%
X265208498Y-77467100D02*
X265223212Y-77747875D01*
X264189896Y-77520483D02*
X264204610Y-77801258D01*
%TO.C,REF\u002A\u002A105*%
X207762924Y-102109317D02*
X207544421Y-101932378D01*
X208404831Y-101316628D02*
X208186328Y-101139689D01*
D12*
%TO.C,LED\u002A\u002A75*%
X253800660Y-55219490D02*
X253800660Y-55219490D01*
D11*
X251946490Y-54490069D02*
X252257349Y-54741797D01*
X253205131Y-52935777D02*
X253515990Y-53187505D01*
D12*
X253674796Y-55374919D02*
X253674796Y-55374919D01*
X253800660Y-55219490D02*
G75*
G03*
X253674796Y-55374919I-62932J-77715D01*
G01*
X253674796Y-55374919D02*
G75*
G03*
X253800660Y-55219490I62932J77714D01*
G01*
%TO.C,LED\u002A\u002A86*%
X220376378Y-47311629D02*
X220376378Y-47311629D01*
D11*
X218955860Y-48708815D02*
X219312263Y-48527218D01*
D12*
X220467176Y-47489830D02*
X220467176Y-47489830D01*
D11*
X218047879Y-46926802D02*
X218404282Y-46745205D01*
D12*
X220376378Y-47311628D02*
G75*
G03*
X220467176Y-47489830I45399J-89101D01*
G01*
X220467175Y-47489829D02*
G75*
G03*
X220376378Y-47311629I-45398J89100D01*
G01*
%TO.C,LED\u002A\u002A87*%
X217331296Y-48584736D02*
X217331296Y-48584736D01*
X217440223Y-48752470D02*
X217440223Y-48752470D01*
D11*
X214975327Y-48445411D02*
X215310795Y-48227556D01*
X216064605Y-50122752D02*
X216400073Y-49904897D01*
D12*
X217331296Y-48584736D02*
G75*
G03*
X217440223Y-48752470I54463J-83867D01*
G01*
X217440222Y-48752469D02*
G75*
G03*
X217331296Y-48584736I-54463J83866D01*
G01*
D10*
%TO.C,REF\u002A\u002A111*%
X227013080Y-109953672D02*
X226732305Y-109938958D01*
X226959697Y-110972274D02*
X226678922Y-110957560D01*
D11*
%TO.C,LED\u002A\u002A98*%
X198396264Y-80025070D02*
X198333690Y-79629995D01*
D12*
X199481802Y-77929454D02*
X199481802Y-77929454D01*
X199679339Y-77898167D02*
X199679339Y-77898167D01*
D11*
X200371640Y-79712201D02*
X200309066Y-79317126D01*
D12*
X199481803Y-77929454D02*
G75*
G03*
X199679339Y-77898167I98768J15643D01*
G01*
X199679340Y-77898167D02*
G75*
G03*
X199481802Y-77929454I-98769J-15644D01*
G01*
D11*
%TO.C,LED\u002A\u002A76*%
X249478815Y-52423877D02*
X249814283Y-52641732D01*
X250568093Y-50746536D02*
X250903561Y-50964391D01*
D12*
X251290145Y-53123223D02*
X251290145Y-53123223D01*
X251399072Y-52955489D02*
X251399072Y-52955489D01*
X251290145Y-53123223D02*
G75*
G03*
X251399072Y-52955489I54463J83867D01*
G01*
X251399071Y-52955490D02*
G75*
G03*
X251290145Y-53123223I-54463J-83866D01*
G01*
D11*
%TO.C,LED\u002A\u002A61*%
X255576123Y-95478815D02*
X255358268Y-95814283D01*
X257253464Y-96568093D02*
X257035609Y-96903561D01*
D12*
X255044511Y-97399072D02*
X255044511Y-97399072D01*
X254876777Y-97290145D02*
X254876777Y-97290145D01*
X254876777Y-97290145D02*
G75*
G03*
X255044511Y-97399072I83867J-54463D01*
G01*
X255044510Y-97399071D02*
G75*
G03*
X254876777Y-97290145I-83866J54463D01*
G01*
%TO.C,LED\u002A\u002A114*%
X235218910Y-108248384D02*
X235218910Y-108248384D01*
D11*
X236898878Y-107177072D02*
X236512508Y-107280600D01*
X237416516Y-109108924D02*
X237030146Y-109212452D01*
D12*
X235167147Y-108055199D02*
X235167147Y-108055199D01*
X235167147Y-108055198D02*
G75*
G03*
X235218910Y-108248384I25882J-96593D01*
G01*
X235218910Y-108248383D02*
G75*
G03*
X235167147Y-108055199I-25881J96592D01*
G01*
D11*
%TO.C,LED\u002A\u002A66*%
X261522955Y-80715061D02*
X261502020Y-81114513D01*
D12*
X261822968Y-82633392D02*
X261822968Y-82633392D01*
X262022694Y-82643859D02*
X262022694Y-82643859D01*
D11*
X263520214Y-80819733D02*
X263499279Y-81219185D01*
D12*
X262022694Y-82643859D02*
G75*
G03*
X261822968Y-82633392I-99863J5234D01*
G01*
X261822968Y-82633392D02*
G75*
G03*
X262022694Y-82643859I99863J-5233D01*
G01*
D10*
%TO.C,REF\u002A\u002A96*%
X197027726Y-72959697D02*
X197042440Y-72678922D01*
X198046328Y-73013080D02*
X198061042Y-72732305D01*
D12*
%TO.C,LED\u002A\u002A106*%
X210709855Y-100876777D02*
X210709855Y-100876777D01*
X210600928Y-101044511D02*
X210600928Y-101044511D01*
D11*
X211431907Y-103253464D02*
X211096439Y-103035609D01*
X212521185Y-101576123D02*
X212185717Y-101358268D01*
D12*
X210600929Y-101044510D02*
G75*
G03*
X210709855Y-100876777I54463J83866D01*
G01*
X210709855Y-100876777D02*
G75*
G03*
X210600928Y-101044511I-54463J-83867D01*
G01*
%TO.C,LED\u002A\u002A63*%
X258573571Y-91882495D02*
X258573571Y-91882495D01*
D11*
X260748199Y-90682081D02*
X260604852Y-91055513D01*
D12*
X258760287Y-91954169D02*
X258760287Y-91954169D01*
D11*
X258881038Y-89965345D02*
X258737691Y-90338777D01*
D12*
X258760287Y-91954169D02*
G75*
G03*
X258573571Y-91882495I-93358J35837D01*
G01*
X258573571Y-91882495D02*
G75*
G03*
X258760287Y-91954169I93358J-35837D01*
G01*
%TO.C,LED\u002A\u002A105*%
X208199340Y-98780510D02*
X208199340Y-98780510D01*
D11*
X210053510Y-99509931D02*
X209742651Y-99258203D01*
X208794869Y-101064223D02*
X208484010Y-100812495D01*
D12*
X208325204Y-98625081D02*
X208325204Y-98625081D01*
X208325204Y-98625081D02*
G75*
G03*
X208199340Y-98780510I-62932J-77714D01*
G01*
X208199340Y-98780510D02*
G75*
G03*
X208325204Y-98625081I62932J77715D01*
G01*
D10*
%TO.C,REF\u002A\u002A81*%
X234986920Y-44046328D02*
X235267695Y-44061042D01*
X235040303Y-43027726D02*
X235321078Y-43042440D01*
D12*
%TO.C,LED\u002A\u002A71*%
X260510170Y-66467176D02*
X260510170Y-66467176D01*
D11*
X261073198Y-64047879D02*
X261254795Y-64404282D01*
X259291185Y-64955860D02*
X259472782Y-65312263D01*
D12*
X260688371Y-66376378D02*
X260688371Y-66376378D01*
X260510171Y-66467175D02*
G75*
G03*
X260688371Y-66376378I89100J45398D01*
G01*
X260688372Y-66376378D02*
G75*
G03*
X260510170Y-66467176I-89101J-45399D01*
G01*
%TO.C,LED\u002A\u002A100*%
X200550511Y-84390472D02*
X200550511Y-84390472D01*
D11*
X201604842Y-86020927D02*
X201461495Y-85647495D01*
D12*
X200363795Y-84462145D02*
X200363795Y-84462145D01*
D11*
X199737681Y-86737663D02*
X199594334Y-86364231D01*
D12*
X200550511Y-84390472D02*
G75*
G03*
X200363795Y-84462145I-93358J-35836D01*
G01*
X200363795Y-84462145D02*
G75*
G03*
X200550511Y-84390472I93358J35837D01*
G01*
D11*
%TO.C,LED\u002A\u002A84*%
X224583484Y-44891076D02*
X224969854Y-44787548D01*
D12*
X226832853Y-45944801D02*
X226832853Y-45944801D01*
D11*
X225101122Y-46822928D02*
X225487492Y-46719400D01*
D12*
X226781090Y-45751616D02*
X226781090Y-45751616D01*
X226832853Y-45944802D02*
G75*
G03*
X226781090Y-45751616I-25882J96593D01*
G01*
X226781090Y-45751617D02*
G75*
G03*
X226832853Y-45944801I25881J-96592D01*
G01*
D10*
%TO.C,REF\u002A\u002A101*%
X200467822Y-90024062D02*
X200340178Y-89773546D01*
X199558996Y-90487132D02*
X199431352Y-90236616D01*
%TO.C,REF\u002A\u002A114*%
X237391458Y-109572831D02*
X237119878Y-109645601D01*
X237655454Y-110558075D02*
X237383874Y-110630845D01*
D11*
%TO.C,LED\u002A\u002A102*%
X202445411Y-93024673D02*
X202227556Y-92689205D01*
D12*
X202752470Y-90559777D02*
X202752470Y-90559777D01*
D11*
X204122752Y-91935395D02*
X203904897Y-91599927D01*
D12*
X202584736Y-90668704D02*
X202584736Y-90668704D01*
X202752469Y-90559778D02*
G75*
G03*
X202584736Y-90668704I-83866J-54463D01*
G01*
X202584736Y-90668704D02*
G75*
G03*
X202752470Y-90559777I83867J54463D01*
G01*
D10*
%TO.C,REF\u002A\u002A116*%
X244024062Y-107532178D02*
X243773546Y-107659822D01*
X244487132Y-108441004D02*
X244236616Y-108568648D01*
%TO.C,REF\u002A\u002A63*%
X261108778Y-90975032D02*
X261008020Y-91237517D01*
X262061030Y-91340567D02*
X261960272Y-91603052D01*
%TO.C,REF\u002A\u002A71*%
X262441004Y-63512868D02*
X262568648Y-63763384D01*
X261532178Y-63975938D02*
X261659822Y-64226454D01*
D12*
%TO.C,LED\u002A\u002A113*%
X231898167Y-108320661D02*
X231898167Y-108320661D01*
D11*
X234025070Y-109603736D02*
X233629995Y-109666310D01*
X233712201Y-107628360D02*
X233317126Y-107690934D01*
D12*
X231929454Y-108518198D02*
X231929454Y-108518198D01*
X231929454Y-108518197D02*
G75*
G03*
X231898167Y-108320661I-15643J98768D01*
G01*
X231898167Y-108320660D02*
G75*
G03*
X231929454Y-108518198I15644J-98769D01*
G01*
D10*
%TO.C,REF\u002A\u002A112*%
X230479517Y-110189896D02*
X230198742Y-110204610D01*
X230532900Y-111208498D02*
X230252125Y-111223212D01*
D11*
%TO.C,LED\u002A\u002A70*%
X262262319Y-67262337D02*
X262405666Y-67635769D01*
D12*
X261449489Y-69609528D02*
X261449489Y-69609528D01*
X261636205Y-69537855D02*
X261636205Y-69537855D01*
D11*
X260395158Y-67979073D02*
X260538505Y-68352505D01*
D12*
X261449489Y-69609528D02*
G75*
G03*
X261636205Y-69537855I93358J35836D01*
G01*
X261636205Y-69537855D02*
G75*
G03*
X261449489Y-69609528I-93358J-35837D01*
G01*
D11*
%TO.C,LED\u002A\u002A81*%
X234715061Y-46477045D02*
X235114513Y-46497980D01*
D12*
X236633392Y-46177032D02*
X236633392Y-46177032D01*
D11*
X234819733Y-44479786D02*
X235219185Y-44500721D01*
D12*
X236643859Y-45977306D02*
X236643859Y-45977306D01*
X236643859Y-45977306D02*
G75*
G03*
X236633392Y-46177032I-5234J-99863D01*
G01*
X236633392Y-46177032D02*
G75*
G03*
X236643859Y-45977306I5233J99863D01*
G01*
D10*
%TO.C,REF\u002A\u002A103*%
X203842878Y-96087452D02*
X203665939Y-95868949D01*
X203050189Y-96729359D02*
X202873250Y-96510856D01*
%TO.C,REF\u002A\u002A82*%
X231520483Y-43810104D02*
X231801258Y-43795390D01*
X231467100Y-42791502D02*
X231747875Y-42776788D01*
D12*
%TO.C,LED\u002A\u002A72*%
X259415264Y-63331296D02*
X259415264Y-63331296D01*
X259247530Y-63440223D02*
X259247530Y-63440223D01*
D11*
X257877248Y-62064605D02*
X258095103Y-62400073D01*
X259554589Y-60975327D02*
X259772444Y-61310795D01*
D12*
X259415264Y-63331296D02*
G75*
G03*
X259247530Y-63440223I-83867J-54463D01*
G01*
X259247531Y-63440222D02*
G75*
G03*
X259415264Y-63331296I83866J54463D01*
G01*
D10*
%TO.C,REF\u002A\u002A80*%
X238569240Y-43636155D02*
X238846939Y-43680139D01*
X238409677Y-44643597D02*
X238687376Y-44687581D01*
D12*
%TO.C,LED\u002A\u002A62*%
X256866875Y-94683190D02*
X256866875Y-94683190D01*
X257045077Y-94773988D02*
X257045077Y-94773988D01*
D11*
X259155068Y-93716662D02*
X258973471Y-94073065D01*
X257373055Y-92808681D02*
X257191458Y-93165084D01*
D12*
X256866875Y-94683190D02*
G75*
G03*
X257045077Y-94773988I89101J-45399D01*
G01*
X257045077Y-94773988D02*
G75*
G03*
X256866875Y-94683190I-89101J45399D01*
G01*
D10*
%TO.C,REF\u002A\u002A93*%
X199938970Y-62659433D02*
X200039728Y-62396948D01*
X200891222Y-63024968D02*
X200991980Y-62762483D01*
%TO.C,REF\u002A\u002A77*%
X248508769Y-47608122D02*
X248759285Y-47735766D01*
X248045699Y-48516948D02*
X248296215Y-48644592D01*
D11*
%TO.C,LED\u002A\u002A69*%
X261177072Y-71101122D02*
X261280600Y-71487492D01*
D12*
X262248384Y-72781090D02*
X262248384Y-72781090D01*
D11*
X263108924Y-70583484D02*
X263212452Y-70969854D01*
D12*
X262055199Y-72832853D02*
X262055199Y-72832853D01*
X262055198Y-72832853D02*
G75*
G03*
X262248384Y-72781090I96593J25882D01*
G01*
X262248383Y-72781090D02*
G75*
G03*
X262055199Y-72832853I-96592J-25881D01*
G01*
%TO.C,LED\u002A\u002A92*%
X205133125Y-59316810D02*
X205133125Y-59316810D01*
X204954923Y-59226012D02*
X204954923Y-59226012D01*
D11*
X204626945Y-61191319D02*
X204808542Y-60834916D01*
X202844932Y-60283338D02*
X203026529Y-59926935D01*
D12*
X205133125Y-59316810D02*
G75*
G03*
X204954923Y-59226012I-89101J45399D01*
G01*
X204954923Y-59226012D02*
G75*
G03*
X205133125Y-59316810I89101J-45399D01*
G01*
D10*
%TO.C,REF\u002A\u002A88*%
X211270641Y-49050189D02*
X211489144Y-48873250D01*
X211912548Y-49842878D02*
X212131051Y-49665939D01*
D12*
%TO.C,LED\u002A\u002A89*%
X211863546Y-52188983D02*
X211863546Y-52188983D01*
D11*
X210802885Y-53815328D02*
X211085728Y-53532485D01*
D12*
X211722124Y-52047561D02*
X211722124Y-52047561D01*
D11*
X209388672Y-52401115D02*
X209671515Y-52118272D01*
D12*
X211863546Y-52188983D02*
G75*
G03*
X211722124Y-52047561I-70711J70711D01*
G01*
X211722124Y-52047561D02*
G75*
G03*
X211863546Y-52188983I70711J-70711D01*
G01*
D11*
%TO.C,LED\u002A\u002A96*%
X198479786Y-73180267D02*
X198500721Y-72780815D01*
D12*
X200177032Y-71366608D02*
X200177032Y-71366608D01*
D11*
X200477045Y-73284939D02*
X200497980Y-72885487D01*
D12*
X199977306Y-71356141D02*
X199977306Y-71356141D01*
X199977306Y-71356141D02*
G75*
G03*
X200177032Y-71366608I99863J-5234D01*
G01*
X200177032Y-71366608D02*
G75*
G03*
X199977306Y-71356141I-99863J5233D01*
G01*
%TO.C,LED\u002A\u002A78*%
X245882495Y-49426429D02*
X245882495Y-49426429D01*
D11*
X244682081Y-47251801D02*
X245055513Y-47395148D01*
D12*
X245954169Y-49239713D02*
X245954169Y-49239713D01*
D11*
X243965345Y-49118962D02*
X244338777Y-49262309D01*
D12*
X245954169Y-49239713D02*
G75*
G03*
X245882495Y-49426429I-35837J-93358D01*
G01*
X245882495Y-49426429D02*
G75*
G03*
X245954169Y-49239713I35837J93358D01*
G01*
%TO.C,LED\u002A\u002A108*%
X216117505Y-104573571D02*
X216117505Y-104573571D01*
D11*
X217317919Y-106748199D02*
X216944487Y-106604852D01*
X218034655Y-104881038D02*
X217661223Y-104737691D01*
D12*
X216045831Y-104760287D02*
X216045831Y-104760287D01*
X216045831Y-104760287D02*
G75*
G03*
X216117505Y-104573571I35837J93358D01*
G01*
X216117505Y-104573571D02*
G75*
G03*
X216045831Y-104760287I-35837J-93358D01*
G01*
D10*
%TO.C,REF\u002A\u002A94*%
X199595371Y-66248750D02*
X199668141Y-65977170D01*
X198610127Y-65984754D02*
X198682897Y-65713174D01*
D12*
%TO.C,LED\u002A\u002A91*%
X207123223Y-56709855D02*
X207123223Y-56709855D01*
D11*
X206423877Y-58521185D02*
X206641732Y-58185717D01*
D12*
X206955489Y-56600928D02*
X206955489Y-56600928D01*
D11*
X204746536Y-57431907D02*
X204964391Y-57096439D01*
D12*
X206955490Y-56600929D02*
G75*
G03*
X207123223Y-56709855I83866J-54463D01*
G01*
X207123223Y-56709855D02*
G75*
G03*
X206955489Y-56600928I-83867J54463D01*
G01*
D10*
%TO.C,REF\u002A\u002A8*%
X252821581Y-102013170D02*
X252622770Y-102211981D01*
X253542830Y-102734419D02*
X253344019Y-102933230D01*
%TO.C,REF\u002A\u002A65*%
X263356403Y-84409677D02*
X263312419Y-84687376D01*
X264363845Y-84569240D02*
X264319861Y-84846939D01*
%TO.C,REF\u002A\u002A110*%
X223430760Y-110363845D02*
X223153061Y-110319861D01*
X223590323Y-109356403D02*
X223312624Y-109312419D01*
%TO.C,REF\u002A\u002A75*%
X254237076Y-51890683D02*
X254455579Y-52067622D01*
X253595169Y-52683372D02*
X253813672Y-52860311D01*
%TO.C,REF\u002A\u002A83*%
X227888780Y-42930075D02*
X228166479Y-42886091D01*
X228048343Y-43937517D02*
X228326042Y-43893533D01*
%TO.C,REF\u002A\u002A68*%
X265069925Y-73888780D02*
X265113909Y-74166479D01*
X264062483Y-74048343D02*
X264106467Y-74326042D01*
D11*
%TO.C,LED\u002A\u002A82*%
X231399520Y-44258665D02*
X231798972Y-44237730D01*
D12*
X233380654Y-45757034D02*
X233380654Y-45757034D01*
X233370187Y-45557308D02*
X233370187Y-45557308D01*
D11*
X231504192Y-46255924D02*
X231903644Y-46234989D01*
D12*
X233380654Y-45757034D02*
G75*
G03*
X233370187Y-45557308I-5234J99863D01*
G01*
X233370187Y-45557308D02*
G75*
G03*
X233380654Y-45757034I5233J-99863D01*
G01*
D11*
%TO.C,LED\u002A\u002A99*%
X200822928Y-82898878D02*
X200719400Y-82512508D01*
D12*
X199751616Y-81218910D02*
X199751616Y-81218910D01*
X199944801Y-81167147D02*
X199944801Y-81167147D01*
D11*
X198891076Y-83416516D02*
X198787548Y-83030146D01*
D12*
X199944802Y-81167147D02*
G75*
G03*
X199751616Y-81218910I-96593J-25882D01*
G01*
X199751617Y-81218910D02*
G75*
G03*
X199944801Y-81167147I96592J25881D01*
G01*
D10*
%TO.C,REF\u002A\u002A84*%
X224608542Y-44427169D02*
X224880122Y-44354399D01*
X224344546Y-43441925D02*
X224616126Y-43369155D01*
D11*
%TO.C,LED\u002A\u002A93*%
X201251801Y-63317919D02*
X201395148Y-62944487D01*
X203118962Y-64034655D02*
X203262309Y-63661223D01*
D12*
X203426429Y-62117505D02*
X203426429Y-62117505D01*
X203239713Y-62045831D02*
X203239713Y-62045831D01*
X203239713Y-62045831D02*
G75*
G03*
X203426429Y-62117505I93358J-35837D01*
G01*
X203426429Y-62117505D02*
G75*
G03*
X203239713Y-62045831I-93358J35837D01*
G01*
%TO.C,LED\u002A\u002A73*%
X257675404Y-60561834D02*
X257675404Y-60561834D01*
X257830833Y-60435970D02*
X257830833Y-60435970D01*
D11*
X256168837Y-59336985D02*
X256420565Y-59647844D01*
X257723129Y-58078344D02*
X257974857Y-58389203D01*
D12*
X257830833Y-60435970D02*
G75*
G03*
X257675404Y-60561834I-77714J-62932D01*
G01*
X257675404Y-60561834D02*
G75*
G03*
X257830833Y-60435970I77715J62932D01*
G01*
D11*
%TO.C,LED\u002A\u002A112*%
X230600480Y-109741335D02*
X230201028Y-109762270D01*
D12*
X228619346Y-108242966D02*
X228619346Y-108242966D01*
D11*
X230495808Y-107744076D02*
X230096356Y-107765011D01*
D12*
X228629813Y-108442692D02*
X228629813Y-108442692D01*
X228629813Y-108442692D02*
G75*
G03*
X228619346Y-108242966I-5233J99863D01*
G01*
X228619346Y-108242966D02*
G75*
G03*
X228629813Y-108442692I5234J-99863D01*
G01*
%TO.C,LED\u002A\u002A85*%
X223609528Y-46550511D02*
X223609528Y-46550511D01*
X223537855Y-46363795D02*
X223537855Y-46363795D01*
D11*
X221979073Y-47604842D02*
X222352505Y-47461495D01*
X221262337Y-45737681D02*
X221635769Y-45594334D01*
D12*
X223609528Y-46550511D02*
G75*
G03*
X223537855Y-46363795I-35836J93358D01*
G01*
X223537855Y-46363795D02*
G75*
G03*
X223609528Y-46550511I35837J-93358D01*
G01*
%TO.C,LED\u002A\u002A95*%
X200934733Y-68175591D02*
X200934733Y-68175591D01*
D11*
X201032582Y-70114772D02*
X201095156Y-69719697D01*
D12*
X200737195Y-68144304D02*
X200737195Y-68144304D01*
D11*
X199057206Y-69801903D02*
X199119780Y-69406828D01*
D12*
X200737195Y-68144304D02*
G75*
G03*
X200934733Y-68175591I98769J-15643D01*
G01*
X200934733Y-68175591D02*
G75*
G03*
X200737195Y-68144304I-98769J15644D01*
G01*
D10*
%TO.C,REF\u002A\u002A73*%
X258949811Y-57270641D02*
X259126750Y-57489144D01*
X258157122Y-57912548D02*
X258334061Y-58131051D01*
D11*
%TO.C,LED\u002A\u002A88*%
X213336985Y-51831163D02*
X213647844Y-51579435D01*
D12*
X214435970Y-50169167D02*
X214435970Y-50169167D01*
D11*
X212078344Y-50276871D02*
X212389203Y-50025143D01*
D12*
X214561834Y-50324596D02*
X214561834Y-50324596D01*
X214561834Y-50324596D02*
G75*
G03*
X214435970Y-50169167I-62932J77715D01*
G01*
X214435970Y-50169167D02*
G75*
G03*
X214561834Y-50324596I62932J-77714D01*
G01*
D10*
%TO.C,REF\u002A\u002A91*%
X203599299Y-56514857D02*
X203752429Y-56279057D01*
X204454743Y-57070389D02*
X204607873Y-56834589D01*
%TO.C,REF\u002A\u002A117*%
X247699728Y-106858979D02*
X247463928Y-107012109D01*
X247144196Y-106003535D02*
X246908396Y-106156665D01*
D12*
%TO.C,LED\u002A\u002A109*%
X219029492Y-106171349D02*
X219029492Y-106171349D01*
D11*
X221020042Y-106083550D02*
X220633672Y-105980022D01*
D12*
X219081256Y-105978164D02*
X219081256Y-105978164D01*
D11*
X220502404Y-108015402D02*
X220116034Y-107911874D01*
D12*
X219029492Y-106171350D02*
G75*
G03*
X219081256Y-105978164I25882J96593D01*
G01*
X219081256Y-105978165D02*
G75*
G03*
X219029492Y-106171349I-25882J-96592D01*
G01*
D11*
%TO.C,LED\u002A\u002A83*%
X227974930Y-44396264D02*
X228370005Y-44333690D01*
D12*
X230070546Y-45481802D02*
X230070546Y-45481802D01*
D11*
X228287799Y-46371640D02*
X228682874Y-46309066D01*
D12*
X230101833Y-45679339D02*
X230101833Y-45679339D01*
X230101833Y-45679340D02*
G75*
G03*
X230070546Y-45481802I-15644J98769D01*
G01*
X230070546Y-45481803D02*
G75*
G03*
X230101833Y-45679339I15643J-98768D01*
G01*
%TO.C,LED\u002A\u002A103*%
X204169167Y-93564030D02*
X204169167Y-93564030D01*
D11*
X204276871Y-95921656D02*
X204025143Y-95610797D01*
X205831163Y-94663015D02*
X205579435Y-94352156D01*
D12*
X204324596Y-93438166D02*
X204324596Y-93438166D01*
X204169167Y-93564030D02*
G75*
G03*
X204324596Y-93438166I77714J62932D01*
G01*
X204324596Y-93438166D02*
G75*
G03*
X204169167Y-93564030I-77715J-62932D01*
G01*
D10*
%TO.C,REF\u002A\u002A106*%
X210514857Y-104400701D02*
X210279057Y-104247571D01*
X211070389Y-103545257D02*
X210834589Y-103392127D01*
%TO.C,REF\u002A\u002A85*%
X220873232Y-44321443D02*
X221135717Y-44220685D01*
X221238767Y-45273695D02*
X221501252Y-45172937D01*
%TO.C,REF\u002A\u002A66*%
X263953672Y-80986920D02*
X263938958Y-81267695D01*
X264972274Y-81040303D02*
X264957560Y-81321078D01*
%TO.C,REF\u002A\u002A70*%
X263678557Y-66873232D02*
X263779315Y-67135717D01*
X262726305Y-67238767D02*
X262827063Y-67501252D01*
%TO.C,REF\u002A\u002A97*%
X196791502Y-76532900D02*
X196776788Y-76252125D01*
X197810104Y-76479517D02*
X197795390Y-76198742D01*
%TO.C,REF\u002A\u002A115*%
X241126768Y-109678557D02*
X240864283Y-109779315D01*
X240761233Y-108726305D02*
X240498748Y-108827063D01*
D11*
%TO.C,LED\u002A\u002A118*%
X248663015Y-102168837D02*
X248352156Y-102420565D01*
X249921656Y-103723129D02*
X249610797Y-103974857D01*
D12*
X247438166Y-103675404D02*
X247438166Y-103675404D01*
X247564030Y-103830833D02*
X247564030Y-103830833D01*
X247438166Y-103675404D02*
G75*
G03*
X247564030Y-103830833I62932J-77715D01*
G01*
X247564030Y-103830833D02*
G75*
G03*
X247438166Y-103675404I-62932J77714D01*
G01*
D10*
%TO.C,REF\u002A\u002A107*%
X213491231Y-106391878D02*
X213240715Y-106264234D01*
X213954301Y-105483052D02*
X213703785Y-105355408D01*
%TO.C,REF\u002A\u002A76*%
X251485143Y-49599299D02*
X251720943Y-49752429D01*
X250929611Y-50454743D02*
X251165411Y-50607873D01*
%TO.C,REF\u002A\u002A108*%
X216659433Y-108061030D02*
X216396948Y-107960272D01*
X217024968Y-107108778D02*
X216762483Y-107008020D01*
D11*
%TO.C,LED\u002A\u002A101*%
X202708815Y-89044140D02*
X202527218Y-88687737D01*
X200926802Y-89952121D02*
X200745205Y-89595718D01*
D12*
X201311629Y-87623622D02*
X201311629Y-87623622D01*
X201489830Y-87532824D02*
X201489830Y-87532824D01*
X201489829Y-87532825D02*
G75*
G03*
X201311629Y-87623622I-89100J-45398D01*
G01*
X201311628Y-87623622D02*
G75*
G03*
X201489830Y-87532824I89101J45399D01*
G01*
D11*
%TO.C,LED\u002A\u002A97*%
X198258665Y-76600480D02*
X198237730Y-76201028D01*
D12*
X199757034Y-74619346D02*
X199757034Y-74619346D01*
D11*
X200255924Y-76495808D02*
X200234989Y-76096356D01*
D12*
X199557308Y-74629813D02*
X199557308Y-74629813D01*
X199557308Y-74629813D02*
G75*
G03*
X199757034Y-74619346I99863J5233D01*
G01*
X199757034Y-74619346D02*
G75*
G03*
X199557308Y-74629813I-99863J-5234D01*
G01*
%TO.C,LED\u002A\u002A80*%
X239824409Y-46934733D02*
X239824409Y-46934733D01*
X239855696Y-46737195D02*
X239855696Y-46737195D01*
D11*
X238198097Y-45057206D02*
X238593172Y-45119780D01*
X237885228Y-47032582D02*
X238280303Y-47095156D01*
D12*
X239855696Y-46737195D02*
G75*
G03*
X239824409Y-46934733I-15643J-98769D01*
G01*
X239824409Y-46934733D02*
G75*
G03*
X239855696Y-46737195I15644J98769D01*
G01*
D10*
%TO.C,REF\u002A\u002A92*%
X202516948Y-59954301D02*
X202644592Y-59703785D01*
X201608122Y-59491231D02*
X201735766Y-59240715D01*
%TO.C,REF\u002A\u002A78*%
X245340567Y-45938970D02*
X245603052Y-46039728D01*
X244975032Y-46891222D02*
X245237517Y-46991980D01*
D12*
%TO.C,LED\u002A\u002A60*%
X252625081Y-99674796D02*
X252625081Y-99674796D01*
D11*
X253509931Y-97946490D02*
X253258203Y-98257349D01*
D12*
X252780510Y-99800660D02*
X252780510Y-99800660D01*
D11*
X255064223Y-99205131D02*
X254812495Y-99515990D01*
D12*
X252625081Y-99674796D02*
G75*
G03*
X252780510Y-99800660I77714J-62932D01*
G01*
X252780510Y-99800660D02*
G75*
G03*
X252625081Y-99674796I-77715J62932D01*
G01*
%TO.C,LED\u002A\u002A94*%
X202021836Y-65081256D02*
X202021836Y-65081256D01*
D11*
X199984598Y-66502404D02*
X200088126Y-66116034D01*
X201916450Y-67020042D02*
X202019978Y-66633672D01*
D12*
X201828651Y-65029492D02*
X201828651Y-65029492D01*
X202021835Y-65081256D02*
G75*
G03*
X201828651Y-65029492I-96592J25882D01*
G01*
X201828650Y-65029492D02*
G75*
G03*
X202021836Y-65081256I96593J-25882D01*
G01*
D11*
%TO.C,LED\u002A\u002A111*%
X227284939Y-107522955D02*
X226885487Y-107502020D01*
X227180267Y-109520214D02*
X226780815Y-109499279D01*
D12*
X225356141Y-108022694D02*
X225356141Y-108022694D01*
X225366608Y-107822968D02*
X225366608Y-107822968D01*
X225366608Y-107822968D02*
G75*
G03*
X225356141Y-108022694I-5233J-99863D01*
G01*
X225356141Y-108022694D02*
G75*
G03*
X225366608Y-107822968I5234J99863D01*
G01*
D10*
%TO.C,REF\u002A\u002A98*%
X196930075Y-80111220D02*
X196886091Y-79833521D01*
X197937517Y-79951657D02*
X197893533Y-79673958D01*
D11*
%TO.C,LED\u002A\u002A77*%
X247716662Y-48844932D02*
X248073065Y-49026529D01*
D12*
X248773988Y-50954923D02*
X248773988Y-50954923D01*
D11*
X246808681Y-50626945D02*
X247165084Y-50808542D01*
D12*
X248683190Y-51133125D02*
X248683190Y-51133125D01*
X248773988Y-50954923D02*
G75*
G03*
X248683190Y-51133125I-45399J-89101D01*
G01*
X248683190Y-51133125D02*
G75*
G03*
X248773988Y-50954923I45399J89101D01*
G01*
D10*
%TO.C,REF\u002A\u002A99*%
X197441925Y-83655454D02*
X197369155Y-83383874D01*
X198427169Y-83391458D02*
X198354399Y-83119878D01*
%TO.C,REF\u002A\u002A74*%
X256013170Y-55178419D02*
X256211981Y-55377230D01*
X256734419Y-54457170D02*
X256933230Y-54655981D01*
D12*
%TO.C,LED\u002A\u002A116*%
X241623622Y-106688371D02*
X241623622Y-106688371D01*
D11*
X243044140Y-105291185D02*
X242687737Y-105472782D01*
D12*
X241532824Y-106510170D02*
X241532824Y-106510170D01*
D11*
X243952121Y-107073198D02*
X243595718Y-107254795D01*
D12*
X241623622Y-106688372D02*
G75*
G03*
X241532824Y-106510170I-45399J89101D01*
G01*
X241532825Y-106510171D02*
G75*
G03*
X241623622Y-106688371I45398J-89100D01*
G01*
D10*
%TO.C,REF\u002A\u002A89*%
X208457170Y-51265581D02*
X208655981Y-51066770D01*
X209178419Y-51986830D02*
X209377230Y-51788019D01*
D11*
%TO.C,LED\u002A\u002A79*%
X241497596Y-45984598D02*
X241883966Y-46088126D01*
D12*
X242970508Y-47828651D02*
X242970508Y-47828651D01*
X242918744Y-48021836D02*
X242918744Y-48021836D01*
D11*
X240979958Y-47916450D02*
X241366328Y-48019978D01*
D12*
X242970508Y-47828650D02*
G75*
G03*
X242918744Y-48021836I-25882J-96593D01*
G01*
X242918744Y-48021835D02*
G75*
G03*
X242970508Y-47828651I25882J96592D01*
G01*
D10*
%TO.C,REF\u002A\u002A69*%
X263572831Y-70608542D02*
X263645601Y-70880122D01*
X264558075Y-70344546D02*
X264630845Y-70616126D01*
%TO.C,REF\u002A\u002A86*%
X217975938Y-46467822D02*
X218226454Y-46340178D01*
X217512868Y-45558996D02*
X217763384Y-45431352D01*
%TO.C,REF\u002A\u002A113*%
X234111220Y-111069925D02*
X233833521Y-111113909D01*
X233951657Y-110062483D02*
X233673958Y-110106467D01*
%TO.C,REF\u002A\u002A95*%
X198643597Y-69590323D02*
X198687581Y-69312624D01*
X197636155Y-69430760D02*
X197680139Y-69153061D01*
%TO.C,REF\u002A\u002A87*%
X214855804Y-47996465D02*
X215091604Y-47843335D01*
X214300272Y-47141021D02*
X214536072Y-46987891D01*
%TO.C,REF\u002A\u002A64*%
X262404629Y-87751250D02*
X262331859Y-88022830D01*
X263389873Y-88015246D02*
X263317103Y-88286826D01*
D11*
%TO.C,LED\u002A\u002A65*%
X260967418Y-83885228D02*
X260904844Y-84280303D01*
X262942794Y-84198097D02*
X262880220Y-84593172D01*
D12*
X261065267Y-85824409D02*
X261065267Y-85824409D01*
X261262805Y-85855696D02*
X261262805Y-85855696D01*
X261065267Y-85824409D02*
G75*
G03*
X261262805Y-85855696I98769J-15644D01*
G01*
X261262805Y-85855696D02*
G75*
G03*
X261065267Y-85824409I-98769J15643D01*
G01*
D10*
%TO.C,REF\u002A\u002A61*%
X258400701Y-97485143D02*
X258247571Y-97720943D01*
X257545257Y-96929611D02*
X257392127Y-97165411D01*
%TD*%
M02*
