%TF.GenerationSoftware,KiCad,Pcbnew,(6.0.4)*%
%TF.CreationDate,2022-06-17T20:48:29+08:00*%
%TF.ProjectId,WS2812_2020_60bit,57533238-3132-45f3-9230-32305f363062,rev?*%
%TF.SameCoordinates,Original*%
%TF.FileFunction,Copper,L2,Bot*%
%TF.FilePolarity,Positive*%
%FSLAX46Y46*%
G04 Gerber Fmt 4.6, Leading zero omitted, Abs format (unit mm)*
G04 Created by KiCad (PCBNEW (6.0.4)) date 2022-06-17 20:48:29*
%MOMM*%
%LPD*%
G01*
G04 APERTURE LIST*
G04 Aperture macros list*
%AMRoundRect*
0 Rectangle with rounded corners*
0 $1 Rounding radius*
0 $2 $3 $4 $5 $6 $7 $8 $9 X,Y pos of 4 corners*
0 Add a 4 corners polygon primitive as box body*
4,1,4,$2,$3,$4,$5,$6,$7,$8,$9,$2,$3,0*
0 Add four circle primitives for the rounded corners*
1,1,$1+$1,$2,$3*
1,1,$1+$1,$4,$5*
1,1,$1+$1,$6,$7*
1,1,$1+$1,$8,$9*
0 Add four rect primitives between the rounded corners*
20,1,$1+$1,$2,$3,$4,$5,0*
20,1,$1+$1,$4,$5,$6,$7,0*
20,1,$1+$1,$6,$7,$8,$9,0*
20,1,$1+$1,$8,$9,$2,$3,0*%
G04 Aperture macros list end*
%TA.AperFunction,SMDPad,CuDef*%
%ADD10RoundRect,0.400000X0.600000X0.400000X-0.600000X0.400000X-0.600000X-0.400000X0.600000X-0.400000X0*%
%TD*%
%TA.AperFunction,ViaPad*%
%ADD11C,0.600000*%
%TD*%
%TA.AperFunction,ViaPad*%
%ADD12C,0.800000*%
%TD*%
%TA.AperFunction,Conductor*%
%ADD13C,0.250000*%
%TD*%
%TA.AperFunction,Conductor*%
%ADD14C,0.500000*%
%TD*%
G04 APERTURE END LIST*
D10*
%TO.P,REF\u002A\u002A,1*%
%TO.N,N/C*%
X229582800Y-45885200D03*
%TD*%
%TO.P,REF\u002A\u002A,1*%
%TO.N,N/C*%
X229582800Y-43726200D03*
%TD*%
%TO.P,REF\u002A\u002A,1*%
%TO.N,N/C*%
X229564800Y-41961200D03*
%TD*%
D11*
%TO.N,*%
X230032800Y-44623200D03*
D12*
%TO.N,GND*%
X230002800Y-46873200D03*
X226852800Y-47293200D03*
D11*
%TO.N,5V*%
X228482800Y-42043200D03*
X230772800Y-41873200D03*
%TD*%
D13*
%TO.N,*%
X229697800Y-44008200D02*
X229997800Y-44008200D01*
X229372800Y-43973200D02*
X229502800Y-43843200D01*
X230072800Y-44183200D02*
X229872800Y-44183200D01*
X229502800Y-43843200D02*
X229892800Y-43843200D01*
X230032800Y-44623200D02*
X230032800Y-44553200D01*
X229997800Y-44008200D02*
X230142800Y-43863200D01*
X229892800Y-43843200D02*
X230072800Y-44023200D01*
X229452800Y-43973200D02*
X229372800Y-43973200D01*
X230072800Y-44023200D02*
X230072800Y-44183200D01*
X230032800Y-44553200D02*
X229452800Y-43973200D01*
X229872800Y-44183200D02*
X229697800Y-44008200D01*
D14*
%TO.N,GND*%
X227812800Y-47293200D02*
X226852800Y-47293200D01*
X229612800Y-46483200D02*
X229612800Y-46093200D01*
X229092800Y-46013200D02*
X227812800Y-47293200D01*
X230002800Y-46873200D02*
X229612800Y-46483200D01*
D13*
%TO.N,5V*%
X228482800Y-42043200D02*
X228652800Y-41873200D01*
D14*
X228652800Y-41873200D02*
X229402800Y-41873200D01*
X230772800Y-41873200D02*
X229852800Y-41873200D01*
%TD*%
%TA.AperFunction,Conductor*%
%TO.N,5V*%
G36*
X231239639Y-41239523D02*
G01*
X232415044Y-41273382D01*
X232419191Y-41273570D01*
X233592797Y-41346379D01*
X233596962Y-41346707D01*
X234767476Y-41458384D01*
X234771628Y-41458849D01*
X235937838Y-41609278D01*
X235941973Y-41609881D01*
X237102549Y-41798893D01*
X237106661Y-41799633D01*
X237388597Y-41855202D01*
X238260345Y-42027022D01*
X238264393Y-42027890D01*
X238548933Y-42093843D01*
X239409899Y-42293405D01*
X239413953Y-42294416D01*
X239811479Y-42400561D01*
X240550035Y-42597766D01*
X240554011Y-42598899D01*
X241089888Y-42761200D01*
X241679388Y-42939742D01*
X241683366Y-42941019D01*
X242057190Y-43067915D01*
X242714269Y-43290963D01*
X242796810Y-43318982D01*
X242800737Y-43320388D01*
X243901082Y-43735077D01*
X243904933Y-43736601D01*
X244990944Y-44187552D01*
X244994723Y-44189196D01*
X246065154Y-44675891D01*
X246068914Y-44677677D01*
X247122637Y-45199605D01*
X247126349Y-45201521D01*
X248162120Y-45758060D01*
X248165762Y-45760095D01*
X249182577Y-46350709D01*
X249186087Y-46352825D01*
X249572244Y-46594592D01*
X250182778Y-46976838D01*
X250186282Y-46979114D01*
X250840845Y-47419791D01*
X251026530Y-47544801D01*
X251161660Y-47635776D01*
X251165081Y-47638161D01*
X252118223Y-48326855D01*
X252121537Y-48329335D01*
X252898694Y-48931074D01*
X253051269Y-49049210D01*
X253054524Y-49051817D01*
X253199769Y-49172188D01*
X253959903Y-49802144D01*
X253963075Y-49804863D01*
X254843052Y-50584770D01*
X254846126Y-50587586D01*
X255660136Y-51358704D01*
X255699792Y-51396270D01*
X255702777Y-51399194D01*
X256529109Y-52235685D01*
X256531996Y-52238705D01*
X257330201Y-53102199D01*
X257332985Y-53105314D01*
X257533937Y-53337708D01*
X258087352Y-53977714D01*
X258102056Y-53994719D01*
X258104730Y-53997916D01*
X258843963Y-54912424D01*
X258846519Y-54915697D01*
X259554984Y-55854157D01*
X259557446Y-55857532D01*
X260234421Y-56818986D01*
X260236769Y-56822442D01*
X260881472Y-57805776D01*
X260883705Y-57809308D01*
X261495461Y-58813497D01*
X261497575Y-58817100D01*
X262075700Y-59841015D01*
X262077694Y-59844687D01*
X262621568Y-60887237D01*
X262623438Y-60890973D01*
X263132424Y-61950934D01*
X263134170Y-61954730D01*
X263539353Y-62875577D01*
X263607741Y-63031001D01*
X263609360Y-63034853D01*
X264046988Y-64126237D01*
X264048479Y-64130140D01*
X264449684Y-65235443D01*
X264451044Y-65239393D01*
X264815376Y-66357370D01*
X264816603Y-66361357D01*
X265113429Y-67386377D01*
X265143679Y-67490839D01*
X265144768Y-67494848D01*
X265245446Y-67891268D01*
X265434213Y-68634540D01*
X265435174Y-68638606D01*
X265686666Y-69787239D01*
X265687492Y-69791334D01*
X265900766Y-70947685D01*
X265901456Y-70951806D01*
X266076278Y-72114625D01*
X266076830Y-72118767D01*
X266208538Y-73248442D01*
X266212997Y-73286691D01*
X266213411Y-73290838D01*
X266238754Y-73595826D01*
X266310782Y-74462666D01*
X266311058Y-74466820D01*
X266326385Y-74774704D01*
X266369523Y-75641226D01*
X266369662Y-75645402D01*
X266389168Y-76821678D01*
X266389181Y-76824757D01*
X266384815Y-77380636D01*
X266384753Y-77383714D01*
X266354725Y-78313403D01*
X266346776Y-78559496D01*
X266346572Y-78563669D01*
X266269667Y-79737001D01*
X266269325Y-79741165D01*
X266153560Y-80911315D01*
X266153080Y-80915465D01*
X265998580Y-82081142D01*
X265997962Y-82085274D01*
X265895762Y-82699289D01*
X265806903Y-83233158D01*
X265804905Y-83245159D01*
X265804154Y-83249252D01*
X265704005Y-83748182D01*
X265572739Y-84402134D01*
X265571849Y-84406216D01*
X265302342Y-85550769D01*
X265301317Y-85554820D01*
X264994008Y-86689823D01*
X264992851Y-86693830D01*
X264720017Y-87583454D01*
X264648086Y-87817996D01*
X264646802Y-87821948D01*
X264264941Y-88934106D01*
X264263523Y-88938023D01*
X263875815Y-89955998D01*
X263845005Y-90036892D01*
X263843453Y-90040772D01*
X263388737Y-91125144D01*
X263387058Y-91128969D01*
X262896642Y-92197666D01*
X262894837Y-92201434D01*
X262369241Y-93253317D01*
X262367313Y-93257019D01*
X262157221Y-93644768D01*
X261807153Y-94290856D01*
X261805102Y-94294496D01*
X261210971Y-95309195D01*
X261208801Y-95312765D01*
X260581344Y-96307225D01*
X260579058Y-96310719D01*
X260162753Y-96924444D01*
X259918959Y-97283850D01*
X259916556Y-97287268D01*
X259224595Y-98237925D01*
X259222081Y-98241262D01*
X258535836Y-99121199D01*
X258498941Y-99168507D01*
X258496331Y-99171741D01*
X258448534Y-99229007D01*
X257742866Y-100074474D01*
X257740136Y-100077637D01*
X256957164Y-100954884D01*
X256954332Y-100957954D01*
X256169245Y-101780937D01*
X256142678Y-101808786D01*
X256139757Y-101811748D01*
X255300321Y-102635220D01*
X255297335Y-102638053D01*
X255051846Y-102863397D01*
X254431084Y-103433218D01*
X254427960Y-103435992D01*
X253535808Y-104202011D01*
X253532593Y-104204679D01*
X252615589Y-104940652D01*
X252612288Y-104943213D01*
X251671356Y-105648401D01*
X251667972Y-105650851D01*
X251235020Y-105953445D01*
X250741853Y-106298124D01*
X250704181Y-106324453D01*
X250700726Y-106326784D01*
X250688664Y-106334632D01*
X249715097Y-106968083D01*
X249711557Y-106970303D01*
X248705262Y-107578537D01*
X248701651Y-107580638D01*
X247675702Y-108155197D01*
X247672023Y-108157178D01*
X246627616Y-108697391D01*
X246623874Y-108699249D01*
X245562132Y-109204537D01*
X245558330Y-109206270D01*
X244661599Y-109597111D01*
X244644755Y-109603070D01*
X243122593Y-110022868D01*
X235729289Y-112061871D01*
X235714098Y-112065068D01*
X235614177Y-112079734D01*
X235388231Y-112112897D01*
X235384088Y-112113435D01*
X234215697Y-112245523D01*
X234211539Y-112245924D01*
X233317277Y-112317090D01*
X233039355Y-112339206D01*
X233035195Y-112339468D01*
X232969188Y-112342523D01*
X231860603Y-112393833D01*
X231856426Y-112393957D01*
X230680687Y-112409348D01*
X230676509Y-112409334D01*
X229567590Y-112387074D01*
X229500872Y-112385735D01*
X229496702Y-112385582D01*
X229350336Y-112377783D01*
X228322489Y-112323016D01*
X228318321Y-112322724D01*
X227866040Y-112283553D01*
X227146852Y-112221264D01*
X227142751Y-112220841D01*
X225975228Y-112080589D01*
X225971132Y-112080028D01*
X225390022Y-111990587D01*
X224808933Y-111901148D01*
X224804815Y-111900444D01*
X223908297Y-111731856D01*
X223649177Y-111683129D01*
X223645113Y-111682294D01*
X222931002Y-111523325D01*
X222497367Y-111426793D01*
X222493305Y-111425818D01*
X221354661Y-111132405D01*
X221350633Y-111131296D01*
X220719127Y-110946033D01*
X220222280Y-110800274D01*
X220218328Y-110799043D01*
X219344911Y-110511033D01*
X219101600Y-110430801D01*
X219097655Y-110429427D01*
X218644156Y-110263021D01*
X217993758Y-110024365D01*
X217989896Y-110022875D01*
X216899999Y-109581421D01*
X216896182Y-109579800D01*
X215821570Y-109102476D01*
X215817780Y-109100717D01*
X214759567Y-108588017D01*
X214755838Y-108586133D01*
X213715239Y-108038647D01*
X213711574Y-108036641D01*
X212689674Y-107454941D01*
X212686077Y-107452814D01*
X211684012Y-106837544D01*
X211680489Y-106835299D01*
X211542585Y-106744195D01*
X210699424Y-106187177D01*
X210695976Y-106184817D01*
X210098055Y-105760682D01*
X209736868Y-105504474D01*
X209733509Y-105502006D01*
X209721928Y-105493199D01*
X209013125Y-104954212D01*
X208797548Y-104790283D01*
X208794265Y-104787700D01*
X207882371Y-104045303D01*
X207879175Y-104042611D01*
X206992427Y-103270413D01*
X206989356Y-103267649D01*
X206128627Y-102466408D01*
X206125657Y-102463550D01*
X205894411Y-102233511D01*
X205292026Y-101634272D01*
X205289113Y-101631277D01*
X204913328Y-101231806D01*
X204483419Y-100774800D01*
X204480621Y-100771725D01*
X204218607Y-100474004D01*
X203703776Y-99889015D01*
X203701070Y-99885835D01*
X203629959Y-99799417D01*
X202953911Y-98977846D01*
X202951324Y-98974593D01*
X202234697Y-98042351D01*
X202232206Y-98038997D01*
X201546869Y-97083492D01*
X201544491Y-97080057D01*
X200891223Y-96102371D01*
X200888960Y-96098859D01*
X200400610Y-95312765D01*
X200268465Y-95100052D01*
X200266327Y-95096480D01*
X199679270Y-94077615D01*
X199677256Y-94073982D01*
X199457482Y-93661514D01*
X199124318Y-93036241D01*
X199122415Y-93032522D01*
X198604193Y-91977031D01*
X198602414Y-91973251D01*
X198539356Y-91833268D01*
X198119454Y-90901121D01*
X198117812Y-90897308D01*
X198062126Y-90761866D01*
X197670663Y-89809748D01*
X197669147Y-89805879D01*
X197258324Y-88704152D01*
X197256929Y-88700214D01*
X196882842Y-87585422D01*
X196881579Y-87581439D01*
X196771901Y-87214698D01*
X196701642Y-86979768D01*
X196544676Y-86454909D01*
X196543545Y-86450887D01*
X196307630Y-85554820D01*
X196244152Y-85313714D01*
X196243172Y-85309718D01*
X195981662Y-84163310D01*
X195980801Y-84159227D01*
X195757438Y-83004746D01*
X195756713Y-83000631D01*
X195632107Y-82218319D01*
X195571756Y-81839421D01*
X195571170Y-81835305D01*
X195490723Y-81193996D01*
X195424812Y-80668571D01*
X195424361Y-80664419D01*
X195316771Y-79493525D01*
X195316457Y-79489359D01*
X195295570Y-79132523D01*
X195247744Y-78315480D01*
X195247569Y-78311315D01*
X195217815Y-77135821D01*
X195217779Y-77131643D01*
X195227014Y-75955838D01*
X195227116Y-75951662D01*
X195275330Y-74776809D01*
X195275570Y-74772637D01*
X195362712Y-73599987D01*
X195363091Y-73595826D01*
X195489064Y-72426729D01*
X195489581Y-72422583D01*
X195562046Y-71910215D01*
X195654244Y-71258321D01*
X195654893Y-71254219D01*
X195858074Y-70096010D01*
X195858859Y-70091933D01*
X195874541Y-70017198D01*
X196100331Y-68941096D01*
X196101242Y-68937085D01*
X196380731Y-67794910D01*
X196381791Y-67790869D01*
X196698995Y-66658583D01*
X196700189Y-66654579D01*
X196831311Y-66239978D01*
X196882878Y-66076925D01*
X197054755Y-65533455D01*
X197056065Y-65529539D01*
X197447637Y-64420697D01*
X197449072Y-64416841D01*
X197877157Y-63321685D01*
X197878742Y-63317819D01*
X198342913Y-62237431D01*
X198344626Y-62233620D01*
X198477347Y-61950934D01*
X198844355Y-61169233D01*
X198846187Y-61165493D01*
X198987336Y-60889069D01*
X199380945Y-60118231D01*
X199382898Y-60114559D01*
X199952062Y-59085645D01*
X199954133Y-59082042D01*
X200236193Y-58609821D01*
X200557118Y-58072531D01*
X200559319Y-58068981D01*
X201195421Y-57080049D01*
X201197739Y-57076573D01*
X201375769Y-56818986D01*
X201866289Y-56109262D01*
X201868721Y-56105865D01*
X202568976Y-55161250D01*
X202571520Y-55157935D01*
X203024723Y-54587159D01*
X203302711Y-54237053D01*
X203305359Y-54233830D01*
X204066671Y-53337708D01*
X204069429Y-53334569D01*
X204524945Y-52833085D01*
X204860036Y-52464179D01*
X204862885Y-52461145D01*
X204867356Y-52456540D01*
X205681917Y-51617444D01*
X205684876Y-51614495D01*
X206531430Y-50798414D01*
X206534486Y-50795564D01*
X207407638Y-50007993D01*
X207410786Y-50005247D01*
X207478339Y-49948262D01*
X208309557Y-49247071D01*
X208312795Y-49244430D01*
X209236222Y-48516459D01*
X209239546Y-48513927D01*
X210186587Y-47816983D01*
X210189992Y-47814563D01*
X211159645Y-47149384D01*
X211163130Y-47147078D01*
X211902686Y-46675021D01*
X212154283Y-46514428D01*
X212157813Y-46512256D01*
X213169396Y-45912815D01*
X213173021Y-45910746D01*
X213451331Y-45758060D01*
X214203980Y-45345143D01*
X214207648Y-45343209D01*
X215256770Y-44812109D01*
X215260473Y-44810312D01*
X216326609Y-44314297D01*
X216330418Y-44312600D01*
X217412436Y-43852197D01*
X217416307Y-43850626D01*
X217980425Y-43632385D01*
X218512951Y-43426365D01*
X218516820Y-43424942D01*
X219626986Y-43037255D01*
X219630915Y-43035955D01*
X220753304Y-42685295D01*
X220757267Y-42684129D01*
X221768461Y-42404650D01*
X221890668Y-42370874D01*
X221894713Y-42369828D01*
X222567001Y-42207805D01*
X223037864Y-42094326D01*
X223041907Y-42093423D01*
X223980463Y-41899911D01*
X224193544Y-41855978D01*
X224197650Y-41855202D01*
X225356533Y-41656069D01*
X225360662Y-41655430D01*
X226525492Y-41494833D01*
X226529640Y-41494331D01*
X227406810Y-41402910D01*
X227699176Y-41372439D01*
X227703319Y-41372077D01*
X228236454Y-41334329D01*
X228305816Y-41349470D01*
X228355983Y-41399708D01*
X228371025Y-41469093D01*
X228370274Y-41476460D01*
X228364300Y-41521839D01*
X228364301Y-42400560D01*
X228379756Y-42517962D01*
X228440264Y-42664041D01*
X228445291Y-42670592D01*
X228474021Y-42708034D01*
X228499621Y-42774254D01*
X228485356Y-42843803D01*
X228469141Y-42867414D01*
X228458185Y-42880014D01*
X228451431Y-42880002D01*
X228451241Y-42893143D01*
X228451241Y-42893144D01*
X228449386Y-43021518D01*
X228439808Y-43067915D01*
X228400916Y-43161808D01*
X228400915Y-43161811D01*
X228397756Y-43169438D01*
X228382300Y-43286839D01*
X228382301Y-44165560D01*
X228382839Y-44169644D01*
X228382839Y-44169650D01*
X228385414Y-44189207D01*
X228397756Y-44282962D01*
X228400917Y-44290592D01*
X228420078Y-44336851D01*
X228429657Y-44386891D01*
X228426229Y-44624106D01*
X228439607Y-44624369D01*
X228439608Y-44624369D01*
X228549250Y-44626522D01*
X228610946Y-44627734D01*
X228671474Y-44644592D01*
X228673405Y-44645707D01*
X228679959Y-44650736D01*
X228773039Y-44689291D01*
X228828320Y-44733839D01*
X228850741Y-44801203D01*
X228833183Y-44869994D01*
X228781221Y-44918372D01*
X228773040Y-44922108D01*
X228679959Y-44960664D01*
X228607833Y-45016008D01*
X228541614Y-45041607D01*
X228530952Y-45042044D01*
X228521368Y-45042030D01*
X228478784Y-45041970D01*
X228478595Y-45055099D01*
X228477674Y-45118929D01*
X228461264Y-45178450D01*
X228458264Y-45182359D01*
X228455106Y-45189984D01*
X228455105Y-45189985D01*
X228451120Y-45199605D01*
X228397756Y-45328438D01*
X228382300Y-45445839D01*
X228382301Y-45760098D01*
X228382301Y-46034406D01*
X228362299Y-46102527D01*
X228345396Y-46123501D01*
X227663102Y-46805795D01*
X227600790Y-46839821D01*
X227574007Y-46842700D01*
X227294899Y-46842700D01*
X227226778Y-46822698D01*
X227218195Y-46816663D01*
X227162192Y-46773691D01*
X227155641Y-46768664D01*
X227009562Y-46708156D01*
X226852800Y-46687518D01*
X226696038Y-46708156D01*
X226549959Y-46768664D01*
X226424518Y-46864918D01*
X226328264Y-46990359D01*
X226267756Y-47136438D01*
X226247118Y-47293200D01*
X226267756Y-47449962D01*
X226270915Y-47457589D01*
X226270916Y-47457592D01*
X226327888Y-47595134D01*
X226335477Y-47665724D01*
X226303698Y-47729211D01*
X226242639Y-47765438D01*
X226231190Y-47767801D01*
X225819815Y-47832957D01*
X225819806Y-47832959D01*
X225818749Y-47833126D01*
X225310262Y-47931966D01*
X224802842Y-48030598D01*
X224802820Y-48030603D01*
X224801774Y-48030806D01*
X224800726Y-48031048D01*
X223793338Y-48263621D01*
X223793323Y-48263625D01*
X223792317Y-48263857D01*
X222791609Y-48531996D01*
X221800868Y-48834896D01*
X220821302Y-49172188D01*
X219854104Y-49543461D01*
X218900452Y-49948262D01*
X217961508Y-50386098D01*
X217960549Y-50386587D01*
X217960538Y-50386592D01*
X217155147Y-50796960D01*
X217038417Y-50856437D01*
X217037454Y-50856971D01*
X217037448Y-50856974D01*
X216585305Y-51107601D01*
X216132303Y-51358704D01*
X215924641Y-51483480D01*
X215245215Y-51891720D01*
X215245191Y-51891735D01*
X215244269Y-51892289D01*
X214375398Y-52456540D01*
X213526749Y-53050771D01*
X213328320Y-53200298D01*
X212700238Y-53673591D01*
X212700216Y-53673608D01*
X212699355Y-53674257D01*
X212698500Y-53674949D01*
X212698480Y-53674965D01*
X212004353Y-54237058D01*
X211894224Y-54326239D01*
X211893372Y-54326980D01*
X211893368Y-54326983D01*
X211218049Y-54914029D01*
X211112338Y-55005922D01*
X210354648Y-55712479D01*
X209622079Y-56445048D01*
X208915522Y-57202738D01*
X208235839Y-57984624D01*
X208235137Y-57985491D01*
X208235126Y-57985504D01*
X207584565Y-58788880D01*
X207584549Y-58788900D01*
X207583857Y-58789755D01*
X207583208Y-58790616D01*
X207583191Y-58790638D01*
X207334759Y-59120319D01*
X206960371Y-59617149D01*
X206366140Y-60465798D01*
X205801889Y-61334669D01*
X205801335Y-61335591D01*
X205801320Y-61335615D01*
X205397425Y-62007810D01*
X205268304Y-62222703D01*
X204766037Y-63128817D01*
X204765542Y-63129788D01*
X204765538Y-63129796D01*
X204330637Y-63983337D01*
X204295698Y-64051908D01*
X203857862Y-64990852D01*
X203453061Y-65944504D01*
X203081788Y-66911702D01*
X202744496Y-67891268D01*
X202441596Y-68882009D01*
X202173457Y-69882717D01*
X202173225Y-69883723D01*
X202173221Y-69883738D01*
X201990072Y-70677047D01*
X201940406Y-70892174D01*
X201940203Y-70893220D01*
X201940198Y-70893242D01*
X201841566Y-71400661D01*
X201742726Y-71909149D01*
X201742559Y-71910206D01*
X201742557Y-71910215D01*
X201709858Y-72116672D01*
X201580658Y-72932404D01*
X201580525Y-72933491D01*
X201580522Y-72933509D01*
X201537157Y-73286691D01*
X201454401Y-73960691D01*
X201364106Y-74992758D01*
X201364048Y-74993857D01*
X201364047Y-74993877D01*
X201330011Y-75643327D01*
X201309886Y-76027348D01*
X201291805Y-77063200D01*
X201297156Y-77369762D01*
X201309886Y-78099052D01*
X201309945Y-78100177D01*
X201335166Y-78581421D01*
X201364106Y-79133642D01*
X201454401Y-80165709D01*
X201454536Y-80166807D01*
X201516145Y-80668573D01*
X201580658Y-81193996D01*
X201580829Y-81195075D01*
X201580831Y-81195090D01*
X201691619Y-81894576D01*
X201742726Y-82217251D01*
X201742934Y-82218319D01*
X201895800Y-83004746D01*
X201940406Y-83234226D01*
X201940648Y-83235274D01*
X202154903Y-84163315D01*
X202173457Y-84243683D01*
X202441596Y-85244391D01*
X202744496Y-86235132D01*
X203081788Y-87214698D01*
X203453061Y-88181896D01*
X203857862Y-89135548D01*
X204295698Y-90074492D01*
X204296187Y-90075451D01*
X204296192Y-90075462D01*
X204716900Y-90901146D01*
X204766037Y-90997583D01*
X205268304Y-91903697D01*
X205268872Y-91904642D01*
X205801320Y-92790785D01*
X205801335Y-92790809D01*
X205801889Y-92791731D01*
X206366140Y-93660602D01*
X206960371Y-94509251D01*
X206966745Y-94517709D01*
X207583191Y-95335762D01*
X207583208Y-95335784D01*
X207583857Y-95336645D01*
X207584549Y-95337500D01*
X207584565Y-95337520D01*
X208203929Y-96102371D01*
X208235839Y-96141776D01*
X208236580Y-96142628D01*
X208236583Y-96142632D01*
X208381205Y-96309000D01*
X208915522Y-96923662D01*
X209622079Y-97681352D01*
X210354648Y-98413921D01*
X211112338Y-99120478D01*
X211113155Y-99121188D01*
X211113167Y-99121199D01*
X211171329Y-99171758D01*
X211894224Y-99800161D01*
X211895091Y-99800863D01*
X211895104Y-99800874D01*
X212698480Y-100451435D01*
X212698500Y-100451451D01*
X212699355Y-100452143D01*
X212700216Y-100452792D01*
X212700238Y-100452809D01*
X213108314Y-100760315D01*
X213526749Y-101075629D01*
X214375398Y-101669860D01*
X215244269Y-102234111D01*
X215245191Y-102234665D01*
X215245215Y-102234680D01*
X215419071Y-102339143D01*
X216132302Y-102767696D01*
X216133270Y-102768232D01*
X216133269Y-102768232D01*
X217034187Y-103267618D01*
X217038417Y-103269963D01*
X217039388Y-103270458D01*
X217039396Y-103270462D01*
X217628801Y-103570779D01*
X217961508Y-103740302D01*
X218900452Y-104178138D01*
X219854104Y-104582939D01*
X220821302Y-104954212D01*
X221800868Y-105291504D01*
X222791609Y-105594404D01*
X223792317Y-105862543D01*
X223793323Y-105862775D01*
X223793338Y-105862779D01*
X224648256Y-106060152D01*
X224801774Y-106095594D01*
X224802820Y-106095797D01*
X224802842Y-106095802D01*
X225260786Y-106184817D01*
X225818749Y-106293274D01*
X225819806Y-106293441D01*
X225819815Y-106293443D01*
X226840910Y-106455169D01*
X226840925Y-106455171D01*
X226842004Y-106455342D01*
X226843091Y-106455475D01*
X226843109Y-106455478D01*
X227376993Y-106521030D01*
X227870291Y-106581599D01*
X228902358Y-106671894D01*
X228903457Y-106671952D01*
X228903477Y-106671953D01*
X229827286Y-106720367D01*
X229936948Y-106726114D01*
X230972800Y-106744195D01*
X232008652Y-106726114D01*
X232118314Y-106720367D01*
X233042123Y-106671953D01*
X233042143Y-106671952D01*
X233043242Y-106671894D01*
X234075309Y-106581599D01*
X234568607Y-106521030D01*
X235102491Y-106455478D01*
X235102509Y-106455475D01*
X235103596Y-106455342D01*
X235104675Y-106455171D01*
X235104690Y-106455169D01*
X236125785Y-106293443D01*
X236125794Y-106293441D01*
X236126851Y-106293274D01*
X236684814Y-106184817D01*
X237142758Y-106095802D01*
X237142780Y-106095797D01*
X237143826Y-106095594D01*
X237297344Y-106060152D01*
X238152262Y-105862779D01*
X238152277Y-105862775D01*
X238153283Y-105862543D01*
X239153991Y-105594404D01*
X240144732Y-105291504D01*
X241124298Y-104954212D01*
X242091496Y-104582939D01*
X243045148Y-104178138D01*
X243984092Y-103740302D01*
X244316800Y-103570779D01*
X244906204Y-103270462D01*
X244906212Y-103270458D01*
X244907183Y-103269963D01*
X244911414Y-103267618D01*
X245812331Y-102768232D01*
X245812330Y-102768232D01*
X245813298Y-102767696D01*
X246526529Y-102339143D01*
X246700385Y-102234680D01*
X246700409Y-102234665D01*
X246701331Y-102234111D01*
X247570202Y-101669860D01*
X248418851Y-101075629D01*
X248837286Y-100760315D01*
X249245362Y-100452809D01*
X249245384Y-100452792D01*
X249246245Y-100452143D01*
X249247100Y-100451451D01*
X249247120Y-100451435D01*
X250050496Y-99800874D01*
X250050509Y-99800863D01*
X250051376Y-99800161D01*
X250774271Y-99171758D01*
X250832433Y-99121199D01*
X250832445Y-99121188D01*
X250833262Y-99120478D01*
X251590952Y-98413921D01*
X252323521Y-97681352D01*
X253030078Y-96923662D01*
X253564396Y-96309000D01*
X253709017Y-96142632D01*
X253709020Y-96142628D01*
X253709761Y-96141776D01*
X253741671Y-96102371D01*
X254361035Y-95337520D01*
X254361051Y-95337500D01*
X254361743Y-95336645D01*
X254362392Y-95335784D01*
X254362409Y-95335762D01*
X254978855Y-94517709D01*
X254985229Y-94509251D01*
X255579460Y-93660602D01*
X256143711Y-92791731D01*
X256144265Y-92790809D01*
X256144280Y-92790785D01*
X256676728Y-91904642D01*
X256677296Y-91903697D01*
X257179563Y-90997583D01*
X257228700Y-90901146D01*
X257649408Y-90075462D01*
X257649413Y-90075451D01*
X257649902Y-90074492D01*
X258087738Y-89135548D01*
X258492539Y-88181896D01*
X258863812Y-87214698D01*
X259201104Y-86235132D01*
X259504004Y-85244391D01*
X259772143Y-84243683D01*
X259790698Y-84163315D01*
X260004952Y-83235274D01*
X260005194Y-83234226D01*
X260049801Y-83004746D01*
X260202666Y-82218319D01*
X260202874Y-82217251D01*
X260253981Y-81894576D01*
X260364769Y-81195090D01*
X260364771Y-81195075D01*
X260364942Y-81193996D01*
X260429456Y-80668573D01*
X260491064Y-80166807D01*
X260491199Y-80165709D01*
X260581494Y-79133642D01*
X260610435Y-78581421D01*
X260635655Y-78100177D01*
X260635714Y-78099052D01*
X260653795Y-77063200D01*
X260635714Y-76027348D01*
X260615589Y-75643327D01*
X260581553Y-74993877D01*
X260581552Y-74993857D01*
X260581494Y-74992758D01*
X260491199Y-73960691D01*
X260408443Y-73286691D01*
X260365078Y-72933509D01*
X260365075Y-72933491D01*
X260364942Y-72932404D01*
X260235743Y-72116672D01*
X260203043Y-71910215D01*
X260203041Y-71910206D01*
X260202874Y-71909149D01*
X260104034Y-71400661D01*
X260005402Y-70893242D01*
X260005397Y-70893220D01*
X260005194Y-70892174D01*
X259955528Y-70677047D01*
X259772379Y-69883738D01*
X259772375Y-69883723D01*
X259772143Y-69882717D01*
X259504004Y-68882009D01*
X259201104Y-67891268D01*
X258863812Y-66911702D01*
X258492539Y-65944504D01*
X258087738Y-64990852D01*
X257649902Y-64051908D01*
X257614964Y-63983337D01*
X257180062Y-63129796D01*
X257180058Y-63129788D01*
X257179563Y-63128817D01*
X256677296Y-62222703D01*
X256548175Y-62007810D01*
X256144280Y-61335615D01*
X256144265Y-61335591D01*
X256143711Y-61334669D01*
X255579460Y-60465798D01*
X254985229Y-59617149D01*
X254610841Y-59120319D01*
X254362409Y-58790638D01*
X254362392Y-58790616D01*
X254361743Y-58789755D01*
X254361051Y-58788900D01*
X254361035Y-58788880D01*
X253710474Y-57985504D01*
X253710463Y-57985491D01*
X253709761Y-57984624D01*
X253030078Y-57202738D01*
X252323521Y-56445048D01*
X251590952Y-55712479D01*
X250833262Y-55005922D01*
X250727552Y-54914029D01*
X250052232Y-54326983D01*
X250052228Y-54326980D01*
X250051376Y-54326239D01*
X249941247Y-54237058D01*
X249247120Y-53674965D01*
X249247100Y-53674949D01*
X249246245Y-53674257D01*
X249245384Y-53673608D01*
X249245362Y-53673591D01*
X248617280Y-53200298D01*
X248418851Y-53050771D01*
X247570202Y-52456540D01*
X246701331Y-51892289D01*
X246700409Y-51891735D01*
X246700385Y-51891720D01*
X246020960Y-51483480D01*
X245813298Y-51358704D01*
X244907183Y-50856437D01*
X244790453Y-50796960D01*
X243985062Y-50386592D01*
X243985051Y-50386587D01*
X243984092Y-50386098D01*
X243045148Y-49948262D01*
X242091496Y-49543461D01*
X241124298Y-49172188D01*
X240144732Y-48834896D01*
X239153991Y-48531996D01*
X238153283Y-48263857D01*
X238152277Y-48263625D01*
X238152262Y-48263621D01*
X237144874Y-48031048D01*
X237143826Y-48030806D01*
X237142780Y-48030603D01*
X237142758Y-48030598D01*
X236635339Y-47931966D01*
X236126851Y-47833126D01*
X236125794Y-47832959D01*
X236125785Y-47832957D01*
X235104690Y-47671231D01*
X235104675Y-47671229D01*
X235103596Y-47671058D01*
X235102509Y-47670925D01*
X235102491Y-47670922D01*
X234447333Y-47590480D01*
X234075309Y-47544801D01*
X233043242Y-47454506D01*
X233042143Y-47454448D01*
X233042123Y-47454447D01*
X232118314Y-47406033D01*
X232008652Y-47400286D01*
X230972800Y-47382205D01*
X230971712Y-47382224D01*
X230622132Y-47388326D01*
X230553673Y-47369516D01*
X230506250Y-47316680D01*
X230494922Y-47246593D01*
X230518263Y-47189794D01*
X230518179Y-47189746D01*
X230518540Y-47189122D01*
X230519969Y-47185643D01*
X230522307Y-47182596D01*
X230522309Y-47182592D01*
X230527336Y-47176041D01*
X230587844Y-47029962D01*
X230608482Y-46873200D01*
X230604088Y-46839821D01*
X230598758Y-46799336D01*
X230609698Y-46729187D01*
X230635066Y-46700606D01*
X230632143Y-46697971D01*
X230652947Y-46674889D01*
X230659700Y-46675021D01*
X230659715Y-46666780D01*
X230679987Y-46623683D01*
X230702309Y-46594592D01*
X230707336Y-46588041D01*
X230767844Y-46441962D01*
X230779576Y-46352846D01*
X230782762Y-46328648D01*
X230782762Y-46328647D01*
X230783300Y-46324561D01*
X230783299Y-45445840D01*
X230777874Y-45404624D01*
X230768922Y-45336625D01*
X230768922Y-45336623D01*
X230767844Y-45328438D01*
X230707336Y-45182359D01*
X230688606Y-45157950D01*
X230663004Y-45091730D01*
X230662567Y-45081017D01*
X230662599Y-45063194D01*
X230662632Y-45045078D01*
X230639301Y-45045045D01*
X230638198Y-45045043D01*
X230570105Y-45024943D01*
X230561673Y-45019005D01*
X230523248Y-44989520D01*
X230481381Y-44932182D01*
X230477160Y-44861311D01*
X230486561Y-44834620D01*
X230510595Y-44785014D01*
X230510595Y-44785013D01*
X230514510Y-44776933D01*
X230515999Y-44768081D01*
X230518729Y-44759528D01*
X230521234Y-44760328D01*
X230546246Y-44708846D01*
X230606870Y-44671897D01*
X230634912Y-44668485D01*
X230638317Y-44667557D01*
X230656430Y-44667913D01*
X230656811Y-44537292D01*
X230677011Y-44469230D01*
X230682847Y-44460957D01*
X230702307Y-44435596D01*
X230702309Y-44435592D01*
X230707336Y-44429041D01*
X230767844Y-44282962D01*
X230783300Y-44165561D01*
X230783299Y-43286840D01*
X230767844Y-43169438D01*
X230707336Y-43023359D01*
X230687559Y-42997585D01*
X230661961Y-42931366D01*
X230661525Y-42920517D01*
X230661579Y-42901925D01*
X230661632Y-42883809D01*
X230656315Y-42883800D01*
X230654871Y-42878830D01*
X230625094Y-42832197D01*
X230625301Y-42761200D01*
X230646131Y-42720348D01*
X230684306Y-42670597D01*
X230684309Y-42670592D01*
X230689336Y-42664041D01*
X230749844Y-42517962D01*
X230765300Y-42400561D01*
X230765299Y-41521840D01*
X230749844Y-41404438D01*
X230747476Y-41398721D01*
X230749145Y-41328703D01*
X230788941Y-41269908D01*
X230854207Y-41241963D01*
X230868611Y-41241073D01*
X231116929Y-41239989D01*
X231235475Y-41239472D01*
X231239639Y-41239523D01*
G37*
%TD.AperFunction*%
%TD*%
%TA.AperFunction,NonConductor*%
G36*
X228943439Y-46885700D02*
G01*
X229288265Y-46885700D01*
X229356386Y-46905702D01*
X229402879Y-46959358D01*
X229413187Y-46995254D01*
X229417756Y-47029962D01*
X229478264Y-47176041D01*
X229483291Y-47182592D01*
X229483293Y-47182596D01*
X229515623Y-47224730D01*
X229541223Y-47290950D01*
X229526958Y-47360499D01*
X229477356Y-47411295D01*
X229422254Y-47427260D01*
X229341030Y-47431517D01*
X228903477Y-47454447D01*
X228903457Y-47454448D01*
X228902358Y-47454506D01*
X228574616Y-47483180D01*
X228505011Y-47469191D01*
X228454018Y-47419791D01*
X228437828Y-47350666D01*
X228461580Y-47283760D01*
X228474539Y-47268564D01*
X228823475Y-46919628D01*
X228885787Y-46885602D01*
X228929015Y-46883801D01*
X228943439Y-46885700D01*
G37*
%TD.AperFunction*%
M02*
